<?xml version="1.0" standalone="no"?>
<!DOCTYPE svg PUBLIC "-//W3C//DTD SVG 20010904//EN"
 "http://www.w3.org/TR/2001/REC-SVG-20010904/DTD/svg10.dtd">
<svg version="1.0" xmlns="http://www.w3.org/2000/svg"
 width="1024.000000pt" height="1024.000000pt" viewBox="0 0 1024.000000 1024.000000"
 preserveAspectRatio="xMidYMid meet">
<metadata>
Created by potrace 1.14, written by Peter Selinger 2001-2017
</metadata>
<g transform="translate(0.000000,1024.000000) scale(0.100000,-0.100000)"
fill="#000000" stroke="none">
<path d="M0 5120 l0 -5120 529 0 c496 0 530 1 535 18 2 9 8 37 11 62 16 105
82 343 140 505 37 103 49 155 35 155 -6 0 -10 -7 -10 -16 0 -8 -4 -13 -10 -9
-6 3 -5 15 2 30 9 19 8 31 -2 50 -11 21 -16 23 -34 13 -12 -6 -25 -17 -29 -24
-9 -16 -41 -18 -66 -4 -10 5 -24 30 -31 55 -7 26 -18 45 -27 45 -8 0 -12 4 -9
9 3 4 -6 6 -19 3 -35 -6 -33 21 3 36 26 11 26 11 2 8 -14 -2 -33 -7 -42 -11
-17 -7 -22 -1 -44 60 -5 16 -9 12 -18 -22 -22 -84 -56 -82 -56 2 0 41 4 57 18
65 13 8 9 9 -20 4 l-38 -6 0 36 0 36 -79 0 c-58 0 -82 -4 -91 -15 -18 -21 -27
-19 -34 9 -9 36 -35 41 -47 9 -5 -14 -12 -24 -14 -21 -2 2 -13 33 -24 68 -13
42 -17 69 -11 80 5 10 7 19 5 22 -6 5 105 33 118 30 4 -1 24 5 43 13 20 8 44
15 53 15 9 1 34 14 56 30 66 49 86 57 198 84 172 43 181 48 171 103 -5 28 -3
34 20 42 14 6 128 15 253 20 285 13 322 21 323 71 0 15 -66 50 -94 50 -29 0
-34 24 -26 110 10 103 23 170 44 230 8 24 13 54 10 66 -7 28 8 37 62 36 24 -1
44 2 44 7 0 5 11 6 25 3 23 -4 47 2 110 28 11 5 27 11 35 13 10 4 8 6 -6 6
-12 1 -27 7 -33 15 -26 31 57 77 95 53 6 -4 15 -43 18 -88 4 -45 10 -88 13
-95 12 -31 21 -10 27 59 3 39 7 81 9 92 3 11 5 27 6 35 3 25 18 -19 26 -78 4
-28 11 -52 16 -52 5 0 9 6 9 13 0 20 54 77 73 77 10 0 17 4 17 9 0 5 22 24 50
42 31 20 50 40 50 51 0 12 6 18 17 16 26 -5 41 93 48 297 4 99 9 203 13 230 7
49 7 138 3 405 -1 74 0 142 4 151 3 9 1 79 -5 155 -5 77 -13 260 -16 407 -6
255 -8 270 -28 292 -11 13 -30 34 -40 48 -27 34 -85 64 -95 49 -5 -9 -14 -5
-29 13 -14 16 -32 25 -51 25 l-29 0 -7 -173 c-4 -94 -9 -194 -11 -222 -2 -27
-3 -65 -4 -84 0 -19 -3 -32 -6 -28 -7 6 -9 63 -19 407 -7 243 -14 345 -23 335
-6 -6 -12 -84 -11 -145 2 -121 -5 -185 -19 -176 -4 2 -19 -5 -32 -16 -15 -12
-18 -18 -8 -14 12 3 15 1 11 -10 -4 -10 2 -14 21 -14 30 0 36 -29 12 -53 -11
-10 -12 -17 -4 -25 15 -15 18 -61 7 -111 -7 -30 -6 -47 2 -57 15 -19 2 -131
-18 -142 -12 -7 -12 -10 1 -21 18 -15 22 -96 6 -106 -6 -4 -8 -11 -4 -16 3 -5
-1 -22 -9 -38 -13 -26 -13 -31 0 -44 8 -8 17 -42 20 -76 l6 -61 -30 0 c-16 0
-65 11 -109 24 -182 55 -209 74 -213 149 -2 41 1 48 21 56 15 5 23 16 23 32 0
35 27 35 154 0 61 -16 111 -26 111 -21 0 14 -238 100 -276 100 -19 0 -25 8
-34 39 -6 22 -8 55 -4 73 7 38 7 111 -1 149 -4 17 1 34 13 49 20 25 16 43 -15
78 -11 11 -13 8 -15 -15 -3 -46 -6 -123 -7 -203 -1 -48 -5 -70 -10 -60 -10 17
-20 438 -21 863 l0 287 -169 0 -169 0 -4 -53 c-3 -28 -6 -137 -7 -242 -2 -104
-6 -224 -10 -265 -5 -63 -8 -40 -14 135 -4 116 -8 332 -9 482 0 149 -4 276 -7
281 -7 10 -307 212 -490 329 -63 40 -122 72 -131 71 -11 -2 -16 -19 -18 -65
-2 -53 -1 -62 13 -57 10 4 15 0 15 -10 0 -10 26 -29 68 -50 137 -68 220 -113
246 -133 15 -12 48 -32 73 -44 26 -12 75 -50 111 -83 l64 -61 1 -85 c2 -77 0
-85 -16 -83 -17 1 -17 -1 2 -21 19 -20 21 -33 19 -184 -1 -89 -5 -167 -9 -173
-4 -7 -19 -4 -45 9 -100 51 -169 92 -250 146 -49 32 -95 61 -104 64 -8 3 -28
14 -43 25 -35 24 -48 13 -39 -32 6 -29 16 -39 57 -60 28 -15 58 -25 67 -23 9
2 22 -7 29 -20 6 -13 26 -35 43 -50 27 -23 33 -24 47 -12 14 12 19 10 42 -16
15 -16 31 -30 37 -30 5 0 32 -20 60 -45 41 -36 56 -44 75 -39 22 5 25 3 25
-20 0 -30 -7 -32 -29 -12 -11 10 -21 12 -31 6 -12 -7 -11 -13 9 -34 13 -13 20
-29 16 -36 -3 -6 3 -19 16 -28 26 -22 19 -62 -12 -62 -24 0 -24 -7 1 -45 13
-19 20 -47 20 -77 0 -42 -3 -48 -21 -48 -34 0 -426 169 -496 214 -32 21 -33
23 -33 95 0 78 2 80 55 60 6 -2 11 1 13 6 2 6 -6 12 -17 15 -43 10 -62 38 -59
83 2 34 6 41 21 39 17 -3 16 0 -4 27 -12 17 -20 33 -17 36 3 3 44 -12 91 -35
47 -22 87 -40 90 -40 3 0 33 -18 66 -40 33 -22 62 -40 66 -40 3 0 5 9 5 21 0
12 -4 18 -11 13 -6 -3 -14 -3 -18 2 -8 11 -40 30 -115 66 -32 16 -65 36 -73
44 -8 7 -20 14 -28 14 -20 0 -74 33 -80 48 -9 25 6 34 31 18 34 -23 35 -21 32
32 -3 42 -6 47 -28 51 -34 4 -39 16 -38 89 1 56 -5 83 -16 71 -3 -4 -17 -340
-20 -476 -2 -78 -11 -71 -14 10 -1 40 -5 89 -8 109 -4 25 -2 38 5 38 9 0 9 6
1 20 -12 22 -17 835 -5 910 l7 45 -41 11 c-34 9 -41 9 -41 -4 0 -10 -7 -13
-22 -8 -13 3 -31 6 -40 6 -10 0 -18 4 -18 9 0 11 86 31 130 31 23 0 30 5 30
20 0 11 -5 20 -11 20 -14 0 10 24 33 32 9 4 18 19 20 35 2 22 9 29 33 33 29 5
35 13 75 100 4 8 17 16 29 18 19 3 21 8 16 33 -4 15 -1 45 6 64 10 26 10 40 2
53 -12 20 6 79 23 74 5 -1 10 38 12 88 l3 90 25 -6 c24 -6 25 -5 19 30 -4 20
-3 36 2 36 5 0 8 15 6 33 -3 31 -3 31 9 7 l11 -25 4 25 c7 41 32 87 58 108 15
12 23 26 19 35 -3 8 1 17 9 20 9 3 18 19 22 36 3 16 13 35 21 42 8 6 14 18 14
25 0 8 5 14 10 14 6 0 10 5 10 10 0 6 -9 10 -20 10 -32 0 -23 21 30 74 49 47
51 48 82 36 18 -7 37 -17 43 -22 15 -13 21 -10 33 17 6 14 20 25 29 25 10 0
23 10 28 23 6 12 17 21 24 19 7 -1 10 2 6 7 -13 22 126 58 295 77 38 5 52 13
92 55 25 27 51 49 57 49 6 0 11 10 12 23 0 12 3 16 6 10 6 -15 43 -17 43 -3 0
6 11 10 24 10 22 0 96 61 96 79 0 3 36 42 80 86 44 44 80 83 80 88 0 5 11 18
25 29 14 11 25 28 25 39 0 11 7 22 15 25 8 4 15 18 15 33 0 15 9 37 20 49 11
12 20 33 20 47 0 14 4 25 9 25 5 0 14 14 20 30 5 17 16 30 24 30 8 0 22 9 32
20 10 11 25 20 34 20 9 0 32 15 52 34 29 26 36 38 32 59 -4 22 -2 27 16 27 30
0 64 37 59 65 -4 18 -1 21 14 17 10 -2 18 1 18 7 0 6 4 11 10 11 17 0 211 200
205 210 -4 6 -3 10 2 9 26 -4 40 4 50 32 7 17 17 28 22 25 6 -4 17 9 25 29 8
19 22 38 31 41 8 3 15 11 15 18 0 6 20 18 45 25 41 12 45 16 46 45 0 17 3 25
6 18 3 -9 14 -1 29 22 14 20 30 36 37 36 7 0 31 13 53 29 21 15 56 34 77 42
20 7 37 19 37 26 0 7 5 13 11 13 6 0 20 11 31 25 20 25 50 34 45 14 -1 -6 5
-14 13 -16 13 -4 13 -3 0 6 -12 9 -12 11 -1 11 11 0 10 4 -3 19 -17 19 -17 19
6 14 15 -3 19 -2 10 4 -9 7 -6 15 13 33 14 13 25 28 25 33 0 12 50 55 73 63 9
3 17 12 17 20 0 8 8 14 19 14 10 0 24 6 30 14 7 8 28 17 47 21 24 4 38 13 41
26 3 10 11 19 19 19 9 0 11 -6 7 -17 -6 -17 -6 -17 10 -1 9 9 17 23 17 31 0
19 85 97 105 97 9 0 23 6 30 13 35 31 70 53 125 79 25 11 47 25 48 29 2 5 15
9 28 9 14 0 27 6 30 14 3 7 23 19 45 26 21 7 44 19 50 27 6 7 25 13 41 13 16
0 27 4 24 8 -11 17 12 30 64 36 70 9 79 10 115 25 16 7 40 11 52 8 14 -2 20 0
16 8 -2 7 8 15 24 20 15 3 35 13 43 20 8 7 48 20 89 29 41 8 77 19 80 24 3 5
61 12 129 15 74 3 129 10 137 17 8 7 15 9 15 4 0 -4 7 1 15 12 12 15 16 16 24
5 7 -11 18 -11 57 -2 27 6 67 12 89 13 22 1 45 5 50 8 20 14 82 21 220 26 76
3 143 8 147 10 4 3 8 -4 8 -16 0 -12 5 -18 10 -15 6 4 8 10 6 14 -3 4 -1 13 5
21 7 12 9 11 9 -5 0 -17 2 -17 10 -5 9 13 10 13 10 0 1 -8 7 -3 16 13 18 33
24 34 18 5 l-5 -23 12 23 c7 12 16 22 20 22 9 0 -8 -45 -24 -67 -6 -8 -6 -13
1 -13 6 0 13 9 17 19 4 12 12 18 21 14 8 -3 15 1 16 8 0 8 2 19 2 24 1 6 5 16
9 23 5 6 5 17 1 24 -4 7 -3 8 4 4 8 -5 12 0 12 13 0 25 16 36 24 16 8 -21 27
-19 20 3 -5 14 -4 14 4 2 6 -8 9 -17 6 -21 -8 -14 41 -58 56 -49 7 4 19 6 27
3 7 -3 20 0 28 7 10 8 19 9 28 3 19 -16 68 -22 94 -12 18 7 21 5 17 -9 -5 -13
-4 -14 4 -3 5 7 15 10 21 7 6 -4 11 -2 11 3 0 6 -4 11 -10 11 -5 0 -10 4 -10
9 0 5 9 7 19 4 14 -3 19 0 18 13 -2 13 5 19 23 20 32 2 46 -6 29 -17 -9 -5 -2
-7 18 -4 25 3 36 -2 47 -17 8 -11 26 -21 40 -22 19 -1 26 -7 27 -21 0 -17 2
-16 10 5 6 14 8 33 5 42 -6 26 9 30 29 8 10 -11 22 -17 26 -14 5 3 9 1 9 -4 0
-4 33 -26 73 -47 39 -21 92 -54 115 -74 72 -59 105 -81 115 -74 6 3 7 1 3 -5
-4 -6 12 -24 37 -40 52 -36 124 -94 155 -124 l22 -23 0 25 c0 23 1 23 21 -10
12 -19 25 -36 30 -38 5 -2 9 -13 9 -23 0 -11 4 -17 10 -14 5 3 10 -3 10 -14 0
-12 5 -21 11 -21 7 0 9 -10 5 -27 -5 -21 -4 -24 4 -13 7 12 10 8 10 -17 0 -17
4 -34 9 -37 4 -3 6 7 3 22 -4 26 -4 26 14 9 16 -14 17 -21 6 -37 -7 -11 -8
-20 -3 -20 6 0 14 7 19 16 10 19 25 4 36 -36 6 -20 5 -22 -4 -10 -10 13 -11
12 -6 -3 3 -10 6 -21 6 -23 0 -3 4 -3 10 1 24 15 71 -76 62 -122 -2 -6 2 -14
8 -18 6 -4 7 1 3 11 -4 12 -2 15 8 12 8 -2 16 -15 17 -29 2 -13 8 -28 13 -34
5 -5 8 -20 8 -35 -1 -16 -3 -19 -6 -7 -2 9 -8 17 -13 17 -4 0 -6 -9 -3 -21 4
-14 12 -19 24 -16 14 4 20 -3 25 -27 4 -17 6 -43 6 -59 0 -15 3 -25 8 -22 19
12 50 -121 57 -242 3 -68 10 -123 15 -123 4 0 8 -25 8 -55 0 -30 5 -55 10 -55
6 0 10 -7 10 -15 0 -8 5 -15 10 -15 6 0 10 -7 10 -15 0 -8 9 -15 20 -15 13 0
20 -7 20 -19 0 -10 7 -21 15 -25 19 -7 19 -26 0 -26 -8 0 -15 -9 -15 -20 0
-13 7 -20 19 -20 27 0 60 -49 63 -94 2 -39 18 -59 56 -70 12 -4 22 -14 22 -22
0 -8 5 -14 11 -14 6 0 20 -11 31 -25 11 -14 28 -25 39 -25 11 0 24 -11 31 -25
6 -14 19 -25 30 -25 10 0 18 -4 18 -10 0 -5 8 -10 18 -10 23 0 42 -19 42 -42
0 -10 5 -18 10 -18 6 0 10 5 10 10 0 17 37 11 46 -7 4 -10 8 -21 8 -25 1 -4 7
-13 13 -19 7 -7 13 -23 13 -36 0 -20 5 -23 40 -23 36 0 40 -3 40 -24 0 -20 4
-24 20 -21 12 2 30 -6 45 -21 18 -18 31 -23 50 -18 14 3 25 2 25 -3 0 -5 21
-8 48 -7 26 1 56 -4 67 -10 25 -16 76 -26 69 -15 -3 5 12 9 33 9 31 0 45 8 85
47 26 26 48 42 48 36 0 -7 -4 -14 -9 -17 -5 -3 -19 -25 -31 -48 -21 -40 -21
-43 -4 -55 10 -7 24 -11 31 -9 24 9 13 -15 -22 -51 -36 -37 -43 -57 -25 -68 6
-3 10 -28 10 -55 0 -40 4 -50 20 -55 11 -3 20 -14 20 -24 0 -20 99 -113 154
-144 45 -25 58 -47 27 -47 -12 0 -21 -2 -21 -4 0 -13 73 -74 84 -70 18 7 76
-50 76 -75 0 -10 16 -35 36 -55 33 -33 35 -34 43 -14 7 20 8 20 25 2 18 -17
18 -18 -2 -25 -18 -7 -1 -28 146 -175 92 -91 181 -173 197 -182 28 -15 57 -20
227 -38 46 -5 73 -13 90 -28 13 -11 22 -20 19 -18 -2 1 -14 -7 -25 -17 -17
-16 -38 -20 -109 -22 -74 -3 -87 -5 -87 -20 0 -9 7 -20 16 -23 14 -5 15 -4 4
9 -8 10 -9 15 -1 15 6 0 13 -11 17 -24 6 -25 29 -40 45 -30 6 3 17 0 25 -7 10
-8 11 -14 4 -19 -15 -9 116 -140 140 -140 18 0 75 -47 75 -63 0 -4 13 -14 29
-22 33 -17 48 -20 26 -4 -13 9 -13 10 0 6 8 -2 16 -14 18 -26 2 -12 10 -25 18
-28 17 -6 18 -20 2 -26 -7 -2 -3 -2 9 -1 29 5 53 -5 53 -22 0 -14 33 -15 46
-1 11 11 34 8 34 -3 0 -5 -9 -10 -20 -10 -11 0 -20 -4 -20 -9 0 -5 -9 -11 -20
-13 -20 -3 -20 -11 -23 -640 -1 -350 -6 -640 -10 -644 -17 -18 -22 18 -25 187
-2 98 -6 179 -9 179 -3 0 -22 -13 -42 -28 -20 -16 -45 -34 -56 -40 -20 -11
-19 -11 2 -12 12 0 26 7 31 16 5 9 17 14 28 12 16 -3 19 -14 21 -80 2 -70 -1
-79 -20 -93 -12 -8 -29 -15 -39 -15 -10 0 -18 -4 -18 -10 0 -5 7 -7 15 -4 8 4
26 -1 40 -10 21 -14 25 -24 25 -65 0 -58 -20 -88 -81 -118 -227 -112 -375
-173 -422 -173 -5 0 -8 33 -8 72 1 40 -1 94 -5 119 -5 39 -2 50 20 76 30 35
33 48 11 39 -9 -3 -18 1 -21 9 -7 18 26 64 47 65 9 0 22 7 29 15 7 8 18 15 24
15 6 0 18 5 26 10 13 8 13 11 -2 22 -21 15 -13 29 26 46 27 12 31 11 58 -17
29 -30 29 -30 8 -41 -12 -6 -20 -14 -17 -16 6 -6 67 29 67 39 0 4 -7 7 -15 7
-10 0 -15 9 -14 28 1 16 3 20 6 10 2 -10 11 -18 20 -18 11 0 14 6 9 24 -7 27
21 48 109 80 60 22 75 39 75 83 0 26 -4 33 -19 33 -10 0 -24 -7 -32 -16 -14
-17 -263 -184 -291 -196 -10 -4 -18 -12 -18 -18 0 -5 -7 -10 -16 -10 -9 0 -29
-9 -45 -21 -54 -38 -57 -29 -56 165 0 96 3 180 8 187 4 7 3 20 -3 29 -15 24 5
162 28 193 10 13 39 38 64 56 122 85 283 188 351 225 l77 40 6 54 c11 94 -6
95 -139 2 -55 -38 -158 -109 -229 -157 -70 -48 -145 -102 -166 -120 l-37 -32
-7 -593 c-4 -326 -11 -597 -15 -601 -10 -10 -21 239 -21 453 0 86 -3 212 -7
278 l-6 122 -152 0 -152 0 -7 -347 c-4 -192 -6 -370 -6 -396 1 -27 -4 -73 -10
-103 -9 -44 -17 -57 -37 -65 -21 -8 -23 -12 -13 -24 15 -18 40 -20 41 -2 1 6
4 -1 8 -18 8 -35 -23 -120 -54 -148 -20 -18 -20 -19 2 -14 12 3 27 -1 33 -8
15 -18 9 -87 -10 -106 -8 -8 -58 -33 -110 -54 -112 -46 -173 -82 -164 -96 4
-7 13 -5 27 4 12 7 49 24 82 37 33 13 65 27 72 32 15 12 26 -7 25 -43 -1 -30
7 -36 24 -19 23 23 44 -1 44 -49 0 -55 -17 -84 -62 -101 -18 -7 -61 -26 -96
-42 -35 -15 -66 -28 -70 -28 -4 0 -16 -8 -27 -16 -19 -15 -18 -16 15 -9 19 4
74 20 122 36 48 16 94 26 102 23 19 -7 28 -59 14 -92 -6 -15 -10 -39 -9 -53 2
-18 -5 -32 -19 -42 l-22 -15 23 -4 c20 -3 24 -10 27 -47 4 -54 -15 -77 -71
-86 -23 -3 -69 -14 -102 -24 -96 -29 -122 -32 -140 -15 -17 18 -20 75 -4 91 7
7 5 31 -7 82 -17 70 -17 72 3 99 18 25 19 30 6 48 -11 15 -13 34 -7 89 9 87 8
118 -4 175 -8 34 -7 52 3 72 9 19 10 29 2 37 -13 13 -22 287 -10 294 11 7 -5
239 -17 251 -7 7 -11 -29 -12 -99 -1 -61 -2 -135 -3 -165 -1 -30 -3 -154 -5
-274 -2 -121 -6 -231 -8 -245 l-5 -26 -8 27 c-4 15 -8 96 -8 180 -1 155 -7
299 -17 396 -5 48 -7 52 -20 35 -8 -10 -13 -13 -14 -5 0 21 -20 13 -20 -8 0
-11 -11 -30 -25 -42 -14 -12 -25 -27 -25 -34 0 -7 -9 -15 -19 -19 -11 -3 -22
-14 -24 -23 -3 -11 -5 -8 -6 8 -1 20 -3 22 -11 10 -5 -8 -10 -27 -10 -42 0
-42 -18 -43 -23 -1 -3 34 -4 32 -6 -12 -1 -27 -6 -79 -11 -115 -10 -69 -25
-586 -21 -707 1 -40 -1 -78 -5 -85 -5 -7 -7 -27 -5 -44 1 -18 -3 -35 -8 -39
-6 -3 -8 -11 -4 -18 3 -6 8 -66 9 -134 2 -68 5 -127 8 -132 3 -5 8 -100 11
-212 7 -264 13 -343 30 -366 9 -11 14 -13 15 -5 0 30 18 -1 24 -43 4 -24 10
-44 14 -44 22 3 33 -3 29 -15 -3 -8 3 -23 13 -34 10 -11 16 -23 13 -26 -4 -3
5 -6 20 -6 19 0 26 -6 29 -22 4 -30 32 -30 36 -1 2 13 8 23 13 23 5 0 9 20 9
45 0 25 4 45 9 45 13 0 19 -43 27 -193 4 -75 11 -137 15 -137 11 0 12 10 13
164 1 87 5 131 12 133 7 2 10 18 7 40 -4 31 -3 35 12 29 9 -3 30 -6 47 -6 21
0 31 -6 35 -20 3 -11 12 -20 19 -20 8 0 14 -9 14 -20 0 -11 5 -20 10 -20 6 0
10 7 10 16 0 16 23 44 36 44 4 0 12 -7 18 -15 6 -8 31 -19 54 -23 24 -4 42
-11 40 -17 -3 -10 -8 -10 -88 1 -65 9 -38 -11 34 -25 62 -11 85 -30 86 -69 0
-31 -27 -82 -44 -82 -7 0 -19 -7 -26 -15 -9 -11 -9 -15 -1 -15 7 0 9 -5 5 -12
-5 -7 0 -9 14 -6 32 9 48 -16 33 -49 -11 -24 -15 -25 -59 -20 -43 6 -45 5 -28
-8 11 -8 29 -15 41 -15 26 0 92 -67 79 -80 -6 -6 -39 -16 -74 -24 -36 -8 -57
-14 -47 -15 17 -1 17 -2 3 -17 -24 -23 -20 -32 20 -49 48 -20 161 -33 350 -40
87 -3 174 -8 192 -11 31 -5 32 -6 26 -44 -8 -50 3 -64 64 -80 164 -42 259 -84
231 -101 -6 -4 12 -14 42 -23 30 -10 62 -21 71 -27 10 -5 31 -9 48 -9 16 0 30
-4 30 -10 0 -5 11 -10 25 -10 17 0 25 -6 25 -17 0 -14 2 -15 9 -5 15 24 23
-54 10 -98 -9 -31 -16 -39 -28 -34 -43 17 -48 16 -54 -16 -4 -19 -11 -29 -18
-25 -6 4 -9 16 -6 26 3 12 -3 25 -16 34 -28 19 -51 19 -44 0 8 -20 -7 -27 -68
-30 -56 -2 -79 -11 -70 -25 3 -5 -7 -8 -22 -7 -19 1 -28 -3 -28 -13 0 -8 -10
-16 -22 -18 -27 -4 -26 -1 -12 -41 17 -49 0 -63 -57 -46 -42 12 -45 12 -40 -3
5 -15 4 -15 -8 1 -16 20 -26 22 -26 4 0 -7 -6 -21 -13 -31 -12 -16 -16 -17
-35 -5 -12 8 -25 28 -28 46 -3 18 -10 33 -14 33 -13 0 -40 -37 -40 -56 -1 -19
-1 -19 -15 0 -16 21 -104 33 -115 16 -4 -6 -20 -13 -36 -16 -75 -13 -174 -58
-174 -79 0 -7 -15 -26 -34 -42 -23 -22 -35 -43 -40 -72 -5 -30 -11 -41 -24
-41 -10 0 -23 -5 -29 -11 -13 -13 -93 -3 -93 12 0 5 -15 9 -34 9 -30 0 -33 -3
-29 -24 10 -51 -96 -47 -112 4 -10 32 -23 23 -29 -20 -3 -22 -9 -58 -12 -80
-4 -25 -10 -38 -16 -34 -8 5 -9 -6 -5 -33 10 -60 67 -505 67 -520 0 -10 181
-13 925 -13 l925 0 0 5120 0 5120 -5120 0 -5120 0 0 -5120z m5796 4755 c10
-26 -1 -35 -13 -10 -6 14 -7 25 -2 25 5 0 12 -7 15 -15z m-134 -67 c-7 -7 -12
-8 -12 -2 0 14 12 26 19 19 2 -3 -1 -11 -7 -17z m888 -83 c11 -13 10 -14 -4
-9 -9 3 -16 10 -16 15 0 13 6 11 20 -6z m1519 -128 c26 -43 73 -93 83 -89 4 1
8 -2 8 -7 0 -4 28 -18 62 -31 44 -16 75 -36 109 -71 41 -42 47 -55 54 -104 7
-59 -1 -153 -15 -170 -16 -19 -28 -113 -16 -125 7 -7 7 -16 -2 -31 -15 -23
-15 -159 0 -223 5 -23 10 -56 10 -73 0 -18 4 -33 9 -33 5 0 9 -5 9 -11 0 -6
-10 -9 -22 -7 -13 2 -22 9 -20 16 1 7 -8 32 -19 55 -12 23 -32 62 -44 86 -15
29 -25 39 -29 30 -3 -9 -5 -7 -3 5 1 11 -13 34 -30 53 -18 18 -33 38 -33 43 0
6 -9 10 -20 10 -11 0 -20 4 -20 8 0 15 -53 72 -66 72 -8 0 -19 9 -26 20 -7 11
-19 20 -26 20 -17 0 -33 16 -57 58 -11 17 -24 32 -30 32 -13 0 -15 121 -3 131
4 3 9 23 11 45 3 37 47 116 63 114 12 -2 33 90 35 153 1 31 3 57 4 57 2 0 13
-15 24 -33z m-1276 -61 c4 -10 1 -13 -8 -9 -8 3 -12 9 -9 14 7 12 11 11 17 -5z
m-5108 -347 c4 -6 13 -8 20 -5 8 3 17 -4 20 -15 4 -13 12 -18 21 -15 9 3 12 1
9 -4 -3 -6 0 -10 7 -10 17 0 42 -38 45 -67 1 -19 -3 -23 -27 -23 -16 0 -32 5
-35 10 -4 6 -10 8 -14 6 -8 -5 -18 10 -48 79 -9 22 -19 43 -21 48 -6 11 16 8
23 -4z m5496 -176 c15 -40 6 -45 -13 -7 -10 19 -13 34 -8 34 6 0 15 -12 21
-27z m-4906 -583 c3 -5 1 -10 -4 -10 -6 0 -11 5 -11 10 0 6 2 10 4 10 3 0 8
-4 11 -10z m-410 -51 c5 -5 19 -9 30 -9 33 0 85 -30 95 -54 5 -13 9 -15 10 -6
0 12 3 11 11 -3 10 -17 16 -48 18 -99 0 -15 8 -34 17 -43 9 -9 14 -19 10 -22
-3 -4 -12 -1 -18 5 -7 7 -41 12 -80 12 -69 0 -93 11 -111 51 -4 8 -11 21 -16
29 -5 8 -14 33 -20 56 -6 22 -24 54 -39 71 l-29 29 56 -4 c31 -2 60 -8 66 -13z
m502 -51 c29 -29 53 -56 53 -60 0 -15 -31 -8 -37 8 -3 10 -18 29 -32 43 -37
36 -55 61 -45 61 4 0 31 -24 61 -52z m6028 -978 c3 -5 1 -10 -4 -10 -6 0 -11
5 -11 10 0 6 2 10 4 10 3 0 8 -4 11 -10z m1480 -1420 c4 -6 -9 -10 -32 -9 -30
0 -34 2 -18 9 27 12 43 12 50 0z m-295 -910 c0 -5 -5 -10 -11 -10 -5 0 -7 5
-4 10 3 6 8 10 11 10 2 0 4 -4 4 -10z m157 -412 c-3 -8 -6 -5 -6 6 -1 11 2 17
5 13 3 -3 4 -12 1 -19z m11 -161 c1 -121 -1 -129 -13 -101 -11 24 -13 58 -8
137 3 59 9 104 14 102 4 -3 7 -65 7 -138z m-8996 72 c62 -28 178 -80 258 -116
150 -68 180 -86 180 -111 0 -9 -6 -12 -17 -9 -57 18 -167 62 -228 91 -38 18
-86 39 -105 47 -19 7 -46 20 -60 29 -14 9 -50 27 -80 40 -56 25 -79 45 -80 68
0 19 10 16 132 -39z m8948 36 c0 -16 -96 -82 -112 -77 -4 1 -8 -3 -8 -9 0 -7
7 -8 18 -4 25 12 82 18 82 10 0 -4 -9 -18 -20 -32 -28 -35 -26 -51 6 -45 25 4
25 4 22 -54 l-3 -59 -215 -107 c-275 -137 -302 -139 -285 -20 11 76 16 91 34
97 10 3 26 13 37 23 10 9 30 23 44 30 14 7 36 20 50 28 25 15 25 15 -9 8 -19
-3 -54 -17 -77 -30 -55 -31 -76 -31 -72 -1 2 18 33 37 153 97 193 96 327 159
343 159 6 1 12 -6 12 -14z m-8960 -114 c78 -40 224 -103 313 -135 26 -10 47
-21 47 -26 0 -4 9 -10 20 -13 11 -3 25 -18 32 -34 7 -15 18 -32 25 -36 18 -11
16 -37 -2 -37 -8 0 -15 -4 -15 -10 0 -5 5 -10 10 -10 6 0 10 -16 10 -36 0 -29
-3 -34 -17 -30 -10 2 -34 8 -53 12 -35 7 -290 107 -407 160 -66 30 -73 39 -73
113 0 43 0 43 32 39 l31 -5 -33 27 c-23 18 -31 32 -27 44 9 23 19 21 107 -23z
m9010 -227 c0 -35 -4 -64 -9 -64 -4 0 -8 31 -7 69 0 38 4 67 9 64 4 -2 7 -33
7 -69z m-643 -56 c-2 -13 -4 -5 -4 17 -1 22 1 32 4 23 2 -10 2 -28 0 -40z
m586 28 c4 -6 6 -31 3 -56 -6 -60 -31 -80 -153 -120 -54 -18 -124 -45 -155
-61 -77 -39 -158 -69 -185 -69 -21 0 -23 5 -23 58 0 51 4 62 28 85 15 15 33
27 39 27 6 0 13 3 15 8 5 11 110 42 144 42 20 0 42 11 67 35 20 19 43 35 50
35 6 0 23 9 36 19 18 14 35 17 75 13 28 -3 55 -10 59 -16z m-8945 -9 c32 -6
83 -29 143 -62 15 -8 40 -16 55 -16 49 -3 169 -46 201 -73 44 -36 45 -39 41
-93 -3 -29 -7 -55 -10 -58 -5 -6 -137 37 -183 60 -37 18 -210 85 -219 85 -4 0
-31 11 -59 24 -29 13 -60 27 -69 30 -21 6 -35 73 -21 95 7 10 22 15 42 13 19
-1 31 3 31 10 0 9 3 10 8 2 4 -6 22 -14 40 -17z m8952 -283 c0 -24 -5 -37 -17
-41 -40 -14 -45 -25 -22 -49 11 -12 19 -27 15 -32 -3 -5 -30 -17 -61 -26 -30
-10 -57 -22 -61 -27 -7 -13 5 -11 62 6 63 19 74 19 74 -3 0 -14 -23 -25 -101
-51 -90 -29 -230 -70 -314 -91 -16 -4 -40 -10 -52 -14 -20 -7 -23 -4 -23 23 0
16 -4 33 -10 36 -14 9 -12 90 3 128 11 26 23 35 63 47 27 8 69 15 94 16 25 1
57 2 71 3 17 1 30 9 37 25 10 23 92 58 168 72 15 3 35 9 43 14 23 12 31 3 31
-36z m-9024 28 c5 -5 38 -17 74 -26 49 -13 78 -28 115 -60 31 -28 55 -42 67
-38 10 2 18 0 18 -5 0 -7 16 -7 45 0 38 9 55 7 115 -14 78 -26 84 -34 78 -110
l-3 -44 -40 2 c-22 1 -33 -1 -25 -4 28 -11 53 -44 42 -55 -13 -13 -162 30
-162 46 0 6 -4 5 -8 -2 -6 -9 -17 -10 -38 -3 -16 5 -85 26 -154 46 -162 48
-170 52 -170 71 0 14 7 15 48 9 26 -4 51 -11 56 -16 6 -5 21 -8 35 -8 17 1 20
3 9 6 -10 2 -18 9 -18 14 0 5 -8 9 -19 9 -37 0 -91 30 -91 50 0 22 35 45 52
34 7 -4 8 -3 4 4 -4 7 -15 12 -24 12 -26 0 -62 29 -62 49 0 32 34 52 56 33z
m179 -312 c77 -21 169 -46 205 -55 72 -19 120 -41 120 -55 0 -6 -11 -10 -24
-10 -13 0 -30 -7 -37 -16 -11 -13 -26 -15 -79 -10 -66 6 -248 48 -352 82 -55
18 -58 21 -58 52 0 45 18 63 55 56 17 -3 93 -23 170 -44z m8837 13 c6 -53 -1
-73 -26 -73 -12 0 -26 -4 -31 -9 -6 -5 -83 -28 -172 -50 -171 -44 -246 -52
-241 -27 2 8 -6 22 -17 30 -30 22 -13 31 110 64 61 16 142 39 180 51 80 25
165 48 181 50 7 1 14 -16 16 -36z m-1355 -115 c-2 -18 -4 -4 -4 32 0 36 2 50
4 33 2 -18 2 -48 0 -65z m-6506 47 c34 -13 77 -28 97 -31 20 -4 56 -16 79 -26
40 -17 43 -22 43 -56 0 -21 -4 -42 -8 -48 -4 -5 -14 -26 -21 -47 -11 -34 -11
-41 4 -57 12 -13 15 -27 10 -49 -7 -34 -31 -46 -66 -33 -13 5 -46 13 -74 17
-61 8 -164 34 -186 46 -17 8 -30 72 -21 97 2 6 13 12 25 12 19 0 19 1 2 20
-11 12 -15 28 -12 42 3 13 -1 32 -9 42 -17 23 -18 50 -4 77 15 27 66 25 141
-6z m6506 -132 c-3 -10 -5 -4 -5 12 0 17 2 24 5 18 2 -7 2 -21 0 -30z m1264
12 c0 -5 -5 -11 -13 -13 -9 -2 -8 0 2 7 13 9 13 11 -2 11 -9 0 -21 -7 -26 -16
-6 -11 -16 -13 -35 -9 -15 4 -24 11 -22 16 3 4 12 6 19 3 8 -3 17 0 21 6 8 13
55 9 56 -5z m-93 -24 c10 -6 4 -10 -19 -15 -63 -12 -21 -16 51 -5 57 10 73 10
80 0 6 -10 12 -10 28 0 16 10 24 11 33 2 17 -17 3 -43 -30 -56 -26 -9 -29 -15
-24 -39 5 -25 1 -30 -31 -43 -20 -8 -98 -27 -174 -41 -75 -14 -155 -29 -177
-34 -22 -5 -44 -5 -48 -1 -5 5 -5 36 -1 69 l6 61 64 20 c36 11 92 25 125 32
38 7 57 15 51 21 -6 6 -17 6 -28 0 -54 -28 -197 -39 -154 -12 8 6 26 10 39 10
23 0 49 6 116 28 39 13 76 14 93 3z m-8833 -26 c0 -29 19 -38 26 -12 5 20 11
22 66 20 80 -3 304 -51 324 -69 9 -8 18 -11 21 -8 9 8 48 -14 48 -27 0 -7 -12
-9 -30 -7 -45 7 -41 -27 5 -44 27 -9 35 -17 33 -33 -3 -18 -9 -20 -63 -17
-100 6 -376 60 -396 78 -10 9 -19 26 -21 38 -2 11 -9 22 -15 22 -7 1 -17 2
-22 3 -11 1 -23 60 -15 73 10 16 39 4 39 -17z m202 19 c-3 -3 -12 -4 -19 -1
-8 3 -5 6 6 6 11 1 17 -2 13 -5z m8775 -116 c-8 -8 -9 -4 -5 13 4 13 8 18 11
10 2 -7 -1 -18 -6 -23z m-7761 -94 c125 -31 149 -44 149 -83 0 -43 -27 -91
-48 -84 -10 3 -8 -1 6 -12 17 -12 21 -22 16 -38 -4 -12 -7 -36 -6 -52 1 -30 1
-30 -46 -28 -39 3 -43 1 -24 -7 13 -6 28 -8 33 -5 4 3 21 -1 37 -9 38 -20 51
-87 23 -122 -10 -13 -21 -20 -25 -17 -3 3 -6 1 -6 -6 0 -6 8 -15 18 -18 38
-14 43 -67 12 -118 -23 -37 -61 -46 -149 -38 -41 4 -51 2 -51 -11 0 -10 6 -13
15 -10 9 4 39 3 68 0 59 -8 105 -40 99 -69 -2 -10 1 -24 8 -31 8 -11 7 -18 -5
-29 -20 -20 -19 -27 3 -27 34 0 58 -49 31 -65 -13 -9 -348 -17 -371 -9 -24 7
-23 23 4 51 12 13 16 23 9 23 -20 0 -8 44 13 48 22 5 38 -16 30 -40 -5 -16 2
-18 53 -18 32 0 89 3 126 7 64 6 67 7 49 23 -12 12 -38 17 -87 19 -37 1 -76 6
-85 11 -10 5 -20 6 -24 3 -3 -3 -6 -1 -6 6 0 7 -4 10 -8 7 -12 -7 -66 50 -58
62 3 6 29 13 56 17 28 4 50 11 50 15 0 20 -30 37 -56 32 -24 -4 -26 -2 -21 18
4 16 1 23 -14 27 -26 7 -26 75 1 113 19 27 19 27 -1 46 -28 26 -21 86 15 119
25 23 25 24 6 30 -26 8 -44 43 -42 80 2 32 20 75 36 87 6 3 11 17 13 31 2 17
-3 27 -22 35 -23 11 -33 40 -18 55 13 14 93 6 194 -19z m6767 -39 c3 -63 15
-87 37 -79 7 3 16 -3 19 -14 9 -28 -3 -114 -20 -139 -19 -30 -18 -40 7 -46 18
-5 19 -10 13 -44 -9 -49 -10 -51 -47 -73 -32 -20 -28 -26 23 -32 22 -3 25 -8
28 -50 3 -39 0 -49 -17 -58 -12 -6 -21 -19 -21 -29 0 -16 -12 -19 -103 -26
-57 -3 -119 -4 -139 0 -30 6 -37 12 -47 45 -15 52 -14 63 10 94 11 14 16 26
11 26 -12 0 -34 49 -26 61 4 7 15 133 17 199 0 8 7 21 16 28 14 12 14 13 -1 8
-16 -5 -18 2 -18 58 0 41 5 67 14 75 7 6 44 18 82 27 38 9 80 20 94 24 54 19
65 10 68 -55z m50 33 c-2 -21 -8 -33 -18 -33 -10 0 -16 12 -18 33 -3 27 0 32
18 32 18 0 21 -5 18 -32z m-8028 12 c0 -6 8 -5 19 2 16 10 49 7 174 -16 85
-15 185 -37 223 -49 l69 -22 -42 -3 c-47 -3 -57 -16 -19 -26 30 -7 39 -29 24
-62 -12 -25 -15 -26 -78 -21 -104 8 -412 47 -422 53 -6 4 -6 77 1 147 1 11 51
8 51 -3z m8923 -8 c-4 -16 5 -15 23 3 9 8 26 15 39 15 25 0 42 -27 26 -43 -6
-6 -7 -23 -4 -38 10 -51 -17 -76 -94 -88 -166 -26 -202 -31 -241 -31 -22 0
-44 -4 -47 -10 -3 -5 -30 -10 -59 -10 l-52 0 -2 37 c-3 38 22 103 39 103 6 0
13 -9 16 -19 3 -12 11 -17 20 -14 8 3 13 14 10 24 -6 23 28 35 183 65 124 23
146 24 143 6z m-8793 -232 c0 -4 6 -8 13 -7 35 1 55 -5 73 -22 23 -21 54 -12
54 15 0 9 5 12 11 8 13 -7 78 -16 122 -15 15 0 27 -5 27 -12 0 -9 12 -12 37
-9 30 4 35 2 30 -11 -3 -9 -2 -19 3 -22 16 -10 11 -45 -6 -52 -15 -5 -15 -7 0
-15 11 -6 16 -23 16 -50 0 -39 -1 -40 -27 -33 -40 10 -65 36 -60 61 4 25 -22
34 -95 34 -21 0 -69 4 -106 10 -37 5 -110 14 -162 20 -104 12 -124 24 -113 69
3 14 7 29 9 33 6 9 174 8 174 -2z m8858 4 c26 -7 38 -44 23 -72 -10 -20 -13
-20 -271 -52 -47 -5 -104 -10 -127 -10 -41 0 -42 -1 -37 -27 6 -37 -6 -53 -42
-56 -25 -2 -29 2 -32 25 -3 23 2 30 25 39 28 11 28 11 6 22 -15 6 -23 19 -23
34 0 36 64 60 175 68 50 3 113 12 140 19 54 15 126 19 163 10z m-29 -148 c-2
-2 -31 -6 -64 -10 -40 -4 -53 -3 -40 3 19 9 113 15 104 7z m-335 -12 c23 -9
20 -34 -3 -34 -22 0 -35 15 -26 30 7 12 8 12 29 4z m56 -14 c0 -5 -7 -10 -16
-10 -8 0 -12 5 -9 10 3 6 10 10 16 10 5 0 9 -4 9 -10z m-8315 -10 c3 -5 -1
-10 -9 -10 -9 0 -16 5 -16 10 0 6 4 10 9 10 6 0 13 -4 16 -10z m-246 -57 c5
-10 8 -38 7 -63 -1 -38 -5 -45 -21 -45 -15 0 -21 8 -23 33 -2 17 -7 32 -11 32
-4 0 -6 -13 -3 -30 3 -23 0 -30 -12 -30 -22 0 -31 27 -16 45 11 13 5 15 -39
15 -48 0 -51 1 -51 25 0 25 1 26 65 22 36 -2 65 0 65 5 0 15 29 8 39 -9z
m8824 -18 c-7 -58 -17 -85 -29 -85 -17 0 -19 37 -1 43 6 2 0 6 -15 9 -24 5
-26 2 -30 -34 -4 -39 13 -70 27 -48 6 9 45 15 45 6 0 -3 -4 -16 -10 -30 -10
-27 -35 -35 -43 -13 -3 7 -6 5 -6 -5 -1 -11 -9 -18 -21 -18 -17 0 -19 7 -19
66 1 64 -11 91 -33 78 -16 -10 -48 8 -48 27 0 13 7 19 24 19 14 0 28 -5 32
-11 5 -8 10 -6 16 5 7 13 21 16 61 14 45 -3 52 -6 50 -23z m70 12 c8 -22 -7
-37 -31 -30 -25 6 -27 14 -10 31 16 16 35 15 41 -1z m-8813 -18 c0 -5 5 -9 10
-9 6 0 9 3 8 8 -2 4 2 8 7 10 6 1 11 -7 13 -18 3 -19 -1 -21 -47 -19 -40 2
-51 6 -51 19 0 9 2 19 5 22 8 8 55 -3 55 -13z m100 -16 c0 -25 -45 -11 -48 15
-3 20 -1 21 22 11 14 -7 26 -19 26 -26z m8440 28 c0 -5 3 -17 6 -26 5 -13 0
-15 -30 -13 -29 2 -36 6 -36 23 0 15 3 16 9 7 7 -11 9 -11 14 2 7 17 37 22 37
7z m-70 -20 c0 -24 -49 -36 -57 -14 -7 17 13 33 40 33 10 0 17 -8 17 -19z
m-8246 3 c30 -12 16 -20 -32 -21 -27 0 -54 -3 -60 -7 -8 -5 -12 0 -12 13 0 18
6 21 44 21 24 0 51 -3 60 -6z m8176 -11 c0 -7 -11 -10 -27 -8 -16 2 -32 4 -38
4 -5 1 -4 5 4 10 19 12 61 8 61 -6z m200 -43 c-9 -17 -40 -29 -40 -16 0 18 15
36 31 36 17 0 18 -3 9 -20z m-8590 -10 c0 -13 -5 -18 -15 -14 -8 4 -15 12 -15
20 0 8 7 14 15 14 8 0 15 -9 15 -20z m8422 -12 c-15 -15 -26 -4 -18 18 5 13 9
15 18 6 9 -9 9 -15 0 -24z m98 21 c0 -5 -4 -7 -10 -4 -5 3 -10 -1 -10 -9 0
-10 -9 -16 -24 -16 -19 0 -23 4 -19 20 4 14 14 20 34 20 16 0 29 -5 29 -11z
m-8440 -14 c0 -8 -7 -15 -15 -15 -8 0 -15 7 -15 15 0 8 7 15 15 15 8 0 15 -7
15 -15z m58 -2 c6 -19 -25 -16 -32 3 -4 11 -1 14 11 12 9 -2 18 -9 21 -15z
m60 0 c2 -8 -6 -13 -22 -13 -25 0 -33 10 -19 24 10 10 36 3 41 -11z m8188 -10
c-10 -10 -19 5 -10 18 6 11 8 11 12 0 2 -7 1 -15 -2 -18z m-8449 -29 c3 -9 -6
-27 -26 -46 -20 -20 -31 -25 -31 -15 0 8 -3 29 -6 46 -6 29 -5 31 25 31 19 0
34 -6 38 -16z m-78 -11 c0 -10 -4 -27 -9 -38 -7 -18 -8 -19 -15 -2 -4 9 -13
17 -21 17 -8 0 -14 8 -14 18 0 14 2 15 10 2 8 -13 10 -12 10 3 0 10 8 17 20
17 13 0 20 -6 19 -17z m8748 -3 c9 -13 9 -21 2 -26 -6 -4 -15 -1 -19 6 -5 9
-9 9 -14 1 -12 -18 -36 -12 -36 8 0 17 13 26 45 30 6 0 16 -8 22 -19z m-8577
-13 c0 -12 -5 -17 -14 -14 -7 3 -18 1 -24 -5 -14 -14 -32 -1 -32 22 0 16 7 19
35 18 28 -1 35 -5 35 -21z m44 17 c16 -6 22 -35 9 -47 -10 -11 -42 23 -36 39
6 16 6 16 27 8z m89 -5 c18 1 27 -4 27 -14 0 -10 -10 -15 -29 -15 -16 0 -36
-3 -45 -6 -12 -5 -16 0 -16 21 0 22 3 26 18 20 9 -4 29 -7 45 -6z m8337 -9 c0
-16 -7 -20 -30 -20 -33 0 -43 25 -12 33 34 9 42 7 42 -13z m-70 -4 c0 -22 -20
-30 -21 -9 -1 17 -1 17 -6 0 -6 -22 -27 -17 -31 6 -3 13 4 17 27 17 20 0 31
-5 31 -14z m97 -8 c-3 -8 -6 -5 -6 6 -1 11 2 17 5 13 3 -3 4 -12 1 -19z m-838
-17 l53 -1 -4 -30 c-4 -27 -2 -30 24 -30 15 0 28 -4 28 -10 0 -5 -6 -7 -12 -5
-7 3 -35 1 -63 -4 -27 -5 -42 -9 -32 -10 9 0 17 -5 17 -11 0 -5 -22 -10 -50
-10 -47 0 -100 -16 -100 -30 0 -10 89 -20 171 -20 l66 0 -5 30 c-3 23 0 30 12
30 18 0 35 -29 28 -49 -2 -8 3 -18 12 -23 26 -14 20 -47 -10 -54 -34 -9 -279
5 -310 16 -33 13 -32 48 2 56 22 6 24 8 10 16 -12 7 -16 24 -16 73 l0 64 43 3
c23 2 51 2 62 2 11 -1 44 -2 74 -3z m-7449 -92 c0 -11 -4 -17 -10 -14 -5 3
-10 13 -10 21 0 8 5 14 10 14 6 0 10 -9 10 -21z m8100 -4 c0 -8 -4 -15 -10
-15 -5 0 -10 7 -10 15 0 8 5 15 10 15 6 0 10 -7 10 -15z m-8574 -42 c-7 -17
-8 -17 -22 1 -11 16 -11 21 -2 27 18 11 32 -6 24 -28z m9034 7 c0 -11 -7 -20
-15 -20 -8 0 -15 9 -15 20 0 11 7 20 15 20 8 0 15 -9 15 -20z m-8517 -37 c30
-5 38 -37 11 -47 -29 -11 -572 -7 -580 5 -17 28 20 34 259 39 133 3 251 6 262
6 11 1 32 0 48 -3z m8549 -20 c9 -10 9 -16 0 -25 -14 -14 -214 -18 -438 -11
-99 4 -113 6 -117 23 -3 10 -2 22 1 25 4 3 127 5 274 3 197 -2 270 -6 280 -15z
m-1250 -70 c10 -9 18 -24 18 -35 0 -14 -8 -18 -39 -18 -45 0 -54 9 -45 45 7
29 38 34 66 8z m226 -52 c-2 -9 -15 -17 -31 -19 -21 -3 -27 1 -27 17 0 10 6
21 13 24 22 7 48 -5 45 -22z m-6916 1 c18 -18 -1 -32 -43 -32 -31 0 -39 4 -39
18 0 10 3 22 6 25 10 9 63 2 76 -11z m-619 -23 c-13 -13 -43 -5 -43 10 0 13
33 20 45 9 5 -5 5 -12 -2 -19z m8100 14 c16 -9 -6 -23 -39 -23 -32 0 -45 16
-28 33 7 6 50 0 67 -10z m-8077 -207 c3 -9 4 -27 0 -39 -5 -20 -16 -26 -78
-37 -40 -7 -100 -14 -133 -15 -33 -1 -85 -6 -115 -13 -30 -6 -89 -13 -131 -16
-41 -2 -79 -6 -85 -7 -26 -5 -34 3 -34 35 0 39 20 60 49 51 11 -3 29 -2 39 4
10 5 67 11 127 13 64 1 128 9 155 18 25 8 80 16 123 18 63 3 78 1 83 -12z
m8180 -7 c6 -5 60 -10 122 -13 61 -3 121 -10 133 -16 11 -7 29 -10 40 -7 29 8
51 -15 47 -48 -3 -29 -5 -30 -53 -30 -27 0 -75 3 -105 8 -30 4 -75 9 -98 12
-24 3 -48 8 -54 11 -6 4 -38 8 -72 9 -33 1 -80 8 -103 14 -38 10 -43 15 -43
40 0 15 3 31 7 35 9 9 165 -4 179 -15z m-8188 -187 c4 -29 -24 -40 -46 -18
-16 16 -16 18 3 32 24 18 39 13 43 -14z m8056 9 c10 -16 -5 -41 -25 -41 -20 0
-23 8 -13 34 7 17 29 21 38 7z m-8020 -170 c8 -12 -37 -28 -129 -45 -167 -31
-422 -75 -465 -81 -43 -5 -44 -5 -19 9 14 8 63 22 110 31 46 9 145 29 219 45
234 51 275 56 284 41z m8127 -26 c307 -67 399 -89 399 -97 0 -13 -106 -1 -235
27 -60 13 -150 31 -199 40 -122 21 -161 32 -177 52 -13 15 -9 16 42 10 30 -4
107 -18 170 -32z m-8541 -581 c0 -9 -10 -14 -27 -14 -25 0 -26 1 -8 20 19 21
35 18 35 -6z m8655 -74 c0 -48 -3 -55 -19 -55 -23 0 -35 36 -28 83 4 27 8 32
26 30 18 -3 21 -10 21 -58z m-8641 -6 c19 -7 21 -58 4 -71 -15 -11 -70 -29
-116 -38 -18 -4 -45 -13 -60 -21 -24 -12 -28 -12 -38 2 -14 18 -4 64 17 75 7
4 50 19 94 33 44 13 81 25 82 25 1 1 8 -2 17 -5z m8772 -13 c23 -10 45 -24 48
-30 4 -6 20 -11 36 -11 33 0 55 -29 45 -60 -7 -23 -43 -27 -51 -5 -4 8 -16 15
-28 15 -26 1 -106 22 -123 33 -14 9 -18 59 -6 70 11 11 36 8 79 -12z m-351
-117 c21 -21 15 -48 -11 -52 -24 -3 -35 16 -27 47 6 25 16 26 38 5z m-527
-337 c2 -12 -3 -17 -17 -17 -15 0 -21 6 -21 21 0 25 33 22 38 -4z"/>
<path d="M9386 4371 c-4 -5 3 -7 14 -4 23 6 26 13 6 13 -8 0 -17 -4 -20 -9z"/>
<path d="M9596 3833 c-11 -11 -6 -23 9 -23 8 0 15 4 15 9 0 13 -16 22 -24 14z"/>
<path d="M9505 3700 c3 -5 12 -7 20 -3 21 7 19 13 -6 13 -11 0 -18 -4 -14 -10z"/>
<path d="M815 3700 c3 -5 11 -10 16 -10 6 0 7 5 4 10 -3 6 -11 10 -16 10 -6 0
-7 -4 -4 -10z"/>
<path d="M1808 3363 c6 -2 18 -2 25 0 6 3 1 5 -13 5 -14 0 -19 -2 -12 -5z"/>
<path d="M1875 3350 c11 -5 27 -9 35 -9 9 0 8 4 -5 9 -11 5 -27 9 -35 9 -9 0
-8 -4 5 -9z"/>
<path d="M9240 3266 c0 -17 14 -29 23 -20 8 8 -3 34 -14 34 -5 0 -9 -6 -9 -14z"/>
<path d="M1750 2748 c0 -14 77 -28 155 -27 67 1 75 2 50 11 -39 12 -205 26
-205 16z"/>
<path d="M8510 3080 c-13 -8 -12 -10 3 -10 9 0 17 5 17 10 0 12 -1 12 -20 0z"/>
<path d="M670 3159 c0 -5 5 -7 10 -4 6 3 10 8 10 11 0 2 -4 4 -10 4 -5 0 -10
-5 -10 -11z"/>
<path d="M762 3123 c-15 -6 -6 -23 14 -23 8 0 14 7 14 15 0 15 -6 17 -28 8z"/>
<path d="M9616 3121 c-4 -7 -5 -15 -2 -18 9 -9 19 4 14 18 -4 11 -6 11 -12 0z"/>
<path d="M9225 3111 c-3 -5 -1 -12 5 -16 5 -3 10 1 10 9 0 18 -6 21 -15 7z"/>
<path d="M9465 3110 c3 -5 13 -10 21 -10 8 0 14 5 14 10 0 6 -9 10 -21 10 -11
0 -17 -4 -14 -10z"/>
<path d="M8425 2480 c-3 -5 1 -10 10 -10 9 0 13 5 10 10 -3 6 -8 10 -10 10 -2
0 -7 -4 -10 -10z"/>
<path d="M5826 9827 c3 -10 9 -15 12 -12 3 3 0 11 -7 18 -10 9 -11 8 -5 -6z"/>
<path d="M5727 9820 c-3 -8 -11 -39 -17 -67 -12 -54 -30 -71 -30 -30 -1 17 -5
13 -20 -18 -10 -22 -64 -86 -119 -142 -56 -57 -101 -107 -101 -112 0 -5 -10
-11 -21 -14 -20 -5 -20 -4 4 21 32 34 67 93 67 112 0 8 -23 -21 -52 -65 -29
-44 -56 -83 -61 -86 -5 -4 -6 -12 -2 -19 5 -9 4 -11 -3 -6 -7 4 -12 1 -12 -7
0 -8 -7 -18 -16 -21 -8 -3 -12 -11 -9 -16 5 -8 12 -7 23 2 15 12 16 11 3 -5
-11 -14 -17 -15 -28 -5 -12 10 -18 9 -29 -7 -7 -11 -18 -26 -24 -33 -6 -7 -8
-17 -4 -24 4 -6 3 -8 -4 -4 -6 3 -20 -7 -31 -23 -29 -40 -26 -53 4 -16 13 16
26 27 28 25 3 -3 -14 -23 -36 -45 -22 -22 -34 -31 -26 -21 8 11 -43 -37 -112
-105 -69 -68 -154 -162 -188 -209 -72 -97 -79 -105 -61 -70 37 71 105 157 212
267 65 68 118 129 118 136 0 8 9 22 21 33 11 10 25 27 31 37 8 16 7 17 -10 8
-11 -6 -22 -14 -24 -18 -1 -5 -54 -57 -117 -118 -68 -65 -101 -92 -81 -66 19
24 75 84 126 133 94 91 193 208 175 208 -5 0 -11 -4 -13 -8 -1 -5 -37 -39 -78
-77 -41 -38 -58 -51 -36 -28 39 42 48 80 11 46 -11 -10 -42 -36 -70 -57 -50
-38 -21 -7 41 44 16 14 33 31 38 38 13 21 -11 13 -46 -15 l-33 -27 29 32 c16
17 44 38 63 47 38 18 40 31 2 16 -13 -5 -51 -19 -84 -31 -33 -12 -79 -31 -102
-41 -24 -11 -45 -19 -49 -19 -15 0 26 27 66 45 99 42 59 39 -48 -4 -83 -33
-152 -70 -218 -117 -34 -24 -65 -44 -68 -44 -4 0 -12 -4 -19 -10 -7 -5 -27
-21 -44 -36 -28 -22 -109 -113 -206 -234 -20 -25 -25 -28 -16 -10 11 22 55 87
69 100 3 3 30 37 61 75 58 72 187 177 307 249 34 21 62 39 62 42 0 5 -91 -31
-140 -56 -51 -26 -64 -25 -22 1 18 12 31 24 28 26 -6 7 -46 -15 -82 -46 -17
-14 -58 -42 -90 -61 -31 -19 -84 -56 -116 -83 -34 -28 -55 -40 -52 -30 4 10
-17 -7 -44 -37 -28 -30 -51 -51 -52 -47 0 4 21 30 46 57 31 34 51 47 62 43 9
-3 14 -3 10 2 -4 4 7 18 25 31 76 55 172 118 178 117 4 -1 17 9 29 22 13 14
21 25 17 25 -12 0 -101 -52 -177 -103 -41 -27 -69 -43 -61 -34 7 9 60 48 116
87 57 39 107 75 111 81 4 7 0 7 -12 0 -11 -6 -66 -33 -124 -61 -58 -27 -116
-57 -130 -66 -15 -10 -11 -3 12 20 21 20 35 36 32 36 -18 0 -217 -168 -277
-234 -23 -25 -25 -26 -13 -6 8 14 72 78 141 143 69 64 121 117 116 117 -4 0
-20 -9 -34 -20 -14 -11 -28 -20 -32 -20 -12 0 -129 -73 -174 -110 -46 -36
-136 -145 -160 -192 -8 -15 -18 -25 -23 -22 -10 6 22 64 36 64 5 0 6 3 3 7
-10 9 55 88 137 166 39 38 62 64 51 59 -11 -6 -29 -20 -39 -31 -21 -23 -42
-29 -30 -8 9 14 -22 -10 -91 -73 -27 -25 -44 -38 -37 -30 29 33 8 27 -48 -16
-51 -39 -180 -181 -180 -198 0 -3 42 -7 93 -7 103 -2 189 -16 107 -18 -164 -4
-551 -81 -610 -121 -18 -12 23 -6 115 17 82 20 215 43 245 42 14 0 -3 -7 -37
-14 -116 -25 -347 -90 -331 -93 8 -2 78 13 154 32 146 37 282 61 291 52 3 -3
-8 -8 -23 -11 -82 -19 -285 -73 -364 -99 -43 -13 -43 -14 -13 -15 17 -1 124
13 236 29 113 17 229 29 259 29 l53 -2 -55 -8 c-183 -30 -470 -95 -365 -83 28
3 61 8 75 11 14 3 22 3 19 0 -3 -4 -48 -16 -100 -26 -52 -11 -125 -32 -164
-46 -38 -15 -92 -33 -120 -40 -27 -7 -41 -14 -30 -14 15 -1 9 -9 -25 -31 -49
-32 -48 -40 2 -14 21 11 33 13 41 5 10 -10 -2 -25 -50 -59 -10 -7 -1 -4 20 8
44 23 355 131 467 161 149 40 307 70 390 74 110 6 71 -6 -135 -40 -220 -37
-541 -131 -662 -194 -51 -26 -166 -111 -160 -118 3 -2 18 3 33 13 l27 18 -13
-24 c-12 -23 -12 -24 4 -11 9 8 20 11 24 7 4 -4 -4 -16 -18 -27 l-25 -20 30 6
c30 6 30 6 9 -12 -11 -10 -31 -26 -45 -35 -23 -16 -23 -16 16 -3 67 23 73 16
13 -16 -32 -16 -58 -30 -58 -32 0 -1 28 -1 62 1 l63 3 -32 -22 c-39 -25 -42
-33 -9 -25 20 5 23 3 19 -12 -4 -18 -128 -91 -138 -81 -3 3 -6 27 -7 52 -1 25
-6 43 -11 40 -34 -21 -154 -244 -192 -357 -37 -110 -31 -104 24 22 27 62 52
116 57 120 4 4 4 -2 0 -13 -5 -11 -18 -54 -31 -95 -13 -41 -31 -95 -40 -120
-29 -76 -126 -471 -124 -506 0 -13 2 -15 5 -4 3 8 19 58 36 110 39 121 149
403 188 481 34 69 112 190 118 184 2 -2 -10 -24 -27 -49 -57 -83 -120 -229
-156 -365 -20 -73 -34 -135 -32 -138 5 -5 33 83 44 139 15 77 92 238 113 238
6 0 10 6 10 14 0 7 13 29 30 47 16 19 30 38 30 42 0 5 5 5 10 2 6 -4 0 -20
-15 -39 -14 -18 -25 -37 -25 -41 0 -4 -11 -22 -24 -39 -37 -49 -94 -177 -101
-226 -8 -58 -40 -193 -70 -295 -23 -80 -51 -262 -42 -271 3 -3 13 29 23 70 12
50 21 72 26 64 6 -8 7 -1 3 17 -3 19 0 38 8 49 17 23 17 22 -24 -224 -17 -96
-32 -211 -34 -255 l-4 -80 9 60 c47 290 133 625 160 625 5 0 12 10 16 23 9 30
56 131 64 137 3 3 19 28 35 55 35 62 93 140 139 191 51 55 45 35 -9 -31 -63
-77 -111 -154 -152 -244 -19 -42 -41 -89 -49 -104 -8 -16 -14 -38 -14 -49 0
-28 -62 -226 -67 -213 -2 6 8 48 22 95 26 86 31 116 16 90 -15 -24 -52 -180
-46 -190 3 -4 -1 -36 -9 -71 -22 -91 -6 -62 55 103 30 82 57 148 61 148 4 0
-3 -30 -16 -67 -70 -199 -101 -326 -136 -559 -24 -161 -26 -304 -4 -304 20 0
97 31 115 47 9 7 19 35 22 61 3 26 20 97 37 157 17 61 32 115 34 120 13 58 40
154 46 170 5 11 13 38 18 60 16 63 62 168 83 190 19 20 19 19 0 -30 -29 -74
-72 -218 -66 -223 3 -3 5 0 5 7 0 7 4 9 10 6 6 -4 5 -16 -4 -33 -8 -15 -28
-92 -46 -172 -35 -160 -68 -279 -82 -296 -11 -15 12 -24 63 -24 32 0 46 7 82
43 72 71 121 111 139 114 9 1 36 9 60 18 24 8 53 15 65 15 12 0 25 5 28 10 3
6 17 10 31 10 13 0 32 4 42 9 30 15 115 33 172 36 123 7 238 25 283 45 28 13
56 19 70 15 18 -5 19 -4 7 5 -12 9 -5 10 32 8 25 -2 44 0 41 5 -2 4 5 7 17 7
12 0 19 -3 17 -7 -3 -5 45 -8 106 -7 62 0 99 -2 82 -5 l-30 -6 -5 -85 -5 -85
138 1 c75 1 140 -2 143 -7 3 -5 18 -9 35 -9 l29 0 0 -77 c0 -152 37 -383 79
-492 52 -137 153 -267 254 -326 104 -60 261 -85 391 -61 279 53 462 205 637
531 42 78 91 203 86 218 -2 6 -11 -12 -21 -39 -43 -114 -181 -340 -243 -396
-18 -16 -19 -16 -20 0 -1 9 -31 96 -66 192 -35 96 -88 247 -116 335 -29 88
-57 169 -62 180 -4 11 -18 54 -29 95 -29 103 -60 189 -80 225 -9 16 -22 45
-28 63 l-11 32 87 2 87 2 -90 6 c-83 6 -79 6 55 8 80 0 190 -3 245 -9 55 -5
168 -11 250 -13 l150 -4 -125 8 c-69 5 -181 14 -250 19 -149 13 -855 23 -790
11 l45 -8 -43 2 c-53 1 -56 17 -5 35 47 18 457 26 695 14 150 -8 201 -2 101
11 -74 9 -140 23 -123 26 8 1 -2 6 -22 11 -21 5 -55 13 -75 18 -36 8 -35 9 27
11 44 2 17 6 -85 12 -175 11 -444 -3 -556 -28 -71 -15 -229 -89 -229 -106 0
-4 -6 -8 -12 -8 -7 0 -24 -9 -37 -19 -24 -18 -24 -18 -52 14 -22 24 -29 43
-29 73 0 22 -4 52 -9 66 -6 13 -11 55 -12 93 -1 37 -6 93 -11 123 -6 30 -12
69 -14 85 -2 17 -8 53 -14 80 -5 28 -13 75 -16 105 -4 30 -11 61 -16 67 -6 7
-13 51 -16 99 -3 52 -8 80 -13 72 -14 -22 -10 103 4 145 17 48 68 101 122 126
62 29 234 68 365 83 173 20 576 16 663 -6 53 -13 88 -16 160 -10 64 4 111 2
152 -7 33 -7 107 -14 165 -16 173 -3 301 -11 371 -24 58 -10 70 -9 105 7 92
43 264 264 305 394 25 76 38 243 20 254 -8 5 -11 -9 -11 -47 0 -127 -46 -254
-149 -407 -45 -68 -124 -160 -137 -160 -3 0 10 20 28 44 81 108 116 162 154
236 51 98 73 167 82 256 9 83 -1 257 -18 310 -58 180 -77 198 -36 33 19 -75
26 -128 26 -198 0 -108 -21 -224 -45 -247 -9 -9 -26 -37 -40 -63 -20 -39 -65
-105 -52 -76 3 6 15 33 27 60 12 28 28 63 36 79 34 70 77 295 54 281 -5 -3
-11 3 -13 12 -3 10 -6 0 -8 -22 -1 -22 -6 2 -9 55 -4 52 -12 111 -18 130 -8
30 -10 19 -11 -70 -2 -104 -15 -178 -45 -255 l-16 -40 7 40 c3 22 10 51 16 65
5 14 12 86 14 160 7 167 -10 255 -65 342 -47 75 -172 244 -172 233 0 -4 -14 6
-30 24 -18 18 -36 29 -43 25 -7 -4 -9 -3 -4 1 7 9 -20 45 -34 45 -5 0 -6 -8
-3 -17 2 -10 -1 -8 -7 5 -7 12 -15 22 -19 22 -5 0 -32 22 -61 50 -30 27 -57
50 -61 50 -10 0 -10 5 7 -60 17 -65 19 -83 5 -75 -5 3 -17 31 -26 61 -21 74
-25 65 -8 -20 20 -95 13 -101 -20 -17 -15 39 -30 71 -32 71 -2 0 -2 -19 1 -42
5 -37 4 -40 -6 -20 -12 21 -39 31 -39 13 0 -4 10 -20 21 -35 40 -51 10 -39
-71 28 -74 62 -80 65 -74 39 7 -28 7 -28 -15 -9 -29 27 -28 1 3 -44 27 -40 41
-107 19 -89 -7 7 -13 15 -13 20 0 5 -11 27 -25 48 -25 37 -60 61 -90 61 -17 0
-49 -59 -82 -150 -23 -66 -24 -60 -7 46 5 34 4 36 -11 20 -9 -9 -23 -16 -31
-16 -8 0 -14 -7 -14 -16 0 -8 -4 -12 -10 -9 -5 3 -10 15 -10 25 0 10 -3 20 -7
22 -5 2 -17 28 -27 58 -11 30 -33 80 -50 110 l-31 55 -6 -55 c-4 -42 -6 -47
-8 -20 -3 47 -17 81 -24 60z m641 -243 c8 -9 12 -20 9 -23 -12 -12 -44 39 -38
60 5 21 5 21 9 1 2 -11 11 -28 20 -38z m-501 -177 c-7 -94 -22 -172 -38 -202
-5 -10 -9 -25 -9 -33 0 -8 -5 -15 -11 -15 -6 0 -8 -9 -4 -21 5 -16 4 -19 -6
-14 -9 6 -11 3 -6 -9 4 -11 3 -15 -4 -10 -6 4 -16 0 -21 -7 -7 -10 -8 -9 -3 6
4 11 18 58 31 105 14 47 31 106 40 131 8 26 18 72 21 103 9 90 17 64 10 -34z
m-252 -22 c-20 -62 -65 -138 -82 -138 -6 0 -23 -19 -36 -43 -14 -24 -34 -50
-43 -58 -15 -12 50 96 66 111 17 15 68 101 85 142 26 61 32 53 10 -14z m-76
-29 c-24 -47 -107 -169 -115 -169 -6 0 10 30 39 74 12 18 38 58 57 89 41 65
50 68 19 6z m671 -54 c0 -108 -40 -305 -62 -305 -5 0 -6 5 -3 11 9 14 44 291
45 347 0 26 4 41 10 37 6 -3 10 -44 10 -90z m-145 -149 c-21 -135 -25 -156
-34 -156 -4 0 -6 12 -5 28 2 15 8 79 14 142 6 63 16 138 23 165 l12 50 3 -64
c2 -35 -4 -109 -13 -165z m-264 157 c-6 -21 -11 -49 -11 -63 0 -25 -58 -155
-59 -134 -1 7 10 40 23 75 13 35 29 91 36 124 7 33 15 55 17 48 2 -6 0 -29 -6
-50z m685 -48 c19 -113 15 -252 -10 -325 -15 -44 -15 -41 -9 80 10 169 9 246
-1 305 -5 28 -6 48 -3 45 3 -3 13 -50 23 -105z m189 -145 c-3 -74 -12 -157
-20 -185 l-15 -50 6 50 c3 28 7 66 9 85 l5 35 -11 -35 c-6 -19 -17 -46 -24
-60 -7 -14 -16 -41 -20 -60 -5 -19 -10 -30 -12 -24 -2 6 11 65 28 130 32 120
37 155 40 294 l2 75 9 -60 c5 -33 7 -121 3 -195z m-914 193 c-11 -41 -65 -172
-57 -138 2 11 17 57 33 102 29 84 42 105 24 36z m859 -196 c-6 -42 -18 -94
-25 -115 l-15 -37 5 35 c3 19 12 96 20 170 8 74 16 142 17 150 1 8 4 -16 6
-55 2 -38 -2 -105 -8 -148z m-269 138 l2 -40 6 40 7 40 13 -52 c15 -62 9 -123
-24 -226 -24 -74 -30 -62 -16 28 12 68 0 92 -16 35 -11 -40 -12 -30 -7 90 3
74 8 139 11 144 9 15 23 -18 24 -59z m-340 20 c-4 -5 -20 -50 -36 -98 -40
-121 -44 -92 -5 35 22 69 34 97 40 88 5 -8 5 -19 1 -25z m-1671 -14 c-5 -11
-18 -22 -29 -26 -30 -9 -136 -126 -171 -188 -18 -32 -35 -56 -37 -53 -7 7 37
80 77 131 25 32 157 153 168 155 1 0 -2 -9 -8 -19z m70 5 c0 -2 -8 -10 -17
-17 -16 -13 -17 -12 -4 4 13 16 21 21 21 13z m620 -41 c-24 -25 -46 -45 -49
-45 -5 0 47 58 69 77 32 27 22 11 -20 -32z m1828 4 c-3 -8 -7 -3 -11 10 -4 17
-3 21 5 13 5 -5 8 -16 6 -23z m-1312 -21 c-16 -38 -32 -47 -32 -19 0 11 2 18
5 16 2 -3 10 4 18 15 21 29 24 24 9 -12z m-1086 18 c0 -2 -12 -11 -27 -20
l-28 -17 24 20 c23 21 31 25 31 17z m2270 -48 c0 -70 -20 -229 -31 -248 -8
-15 -6 28 11 188 5 45 7 89 4 97 -4 8 -1 15 5 15 7 0 11 -21 11 -52z m-2030
28 c0 -2 -24 -23 -52 -46 l-53 -42 50 46 c50 46 55 49 55 42z m1305 -43 c-10
-67 -28 -93 -20 -29 7 52 14 76 22 76 3 0 2 -21 -2 -47z m864 -97 c1 -106 -12
-209 -30 -251 -9 -19 -9 -19 -4 1 10 41 23 272 19 335 -3 45 -1 58 5 44 5 -11
10 -69 10 -129z m-44 -56 c-4 -41 -13 -104 -20 -140 l-14 -65 5 70 c2 39 8
124 11 190 6 109 8 115 15 70 5 -27 6 -84 3 -125z m-2145 147 c0 -1 -28 -29
-62 -62 l-63 -60 60 63 c55 58 65 67 65 59z m330 -21 c0 -2 -8 -10 -17 -17
-16 -13 -17 -12 -4 4 13 16 21 21 21 13z m-960 -9 c0 -2 -12 -14 -27 -28 l-28
-24 24 28 c23 25 31 32 31 24z m439 -45 c-24 -26 -59 -66 -77 -87 l-34 -40 28
40 c26 39 114 135 122 135 3 0 -15 -22 -39 -48z m401 15 c0 -2 -10 -12 -22
-23 l-23 -19 19 23 c18 21 26 27 26 19z m90 -1 c0 -2 -8 -10 -17 -17 -16 -13
-17 -12 -4 4 13 16 21 21 21 13z m-681 -68 c-40 -52 -55 -69 -44 -48 14 27 70
98 74 94 2 -1 -11 -22 -30 -46z m495 -33 c-14 -19 -31 -35 -37 -35 -6 0 4 16
23 35 19 19 36 35 37 35 2 0 -8 -16 -23 -35z m-44 -48 c0 -2 -10 -12 -22 -23
l-23 -19 19 23 c18 21 26 27 26 19z m-943 -243 c-3 -3 -12 -4 -19 -1 -8 3 -5
6 6 6 11 1 17 -2 13 -5z m-40 -10 c-3 -3 -12 -4 -19 -1 -8 3 -5 6 6 6 11 1 17
-2 13 -5z m-44 -11 c-7 -2 -19 -2 -25 0 -7 3 -2 5 12 5 14 0 19 -2 13 -5z
m512 -43 c18 -8 18 -9 2 -9 -10 -1 -15 -5 -12 -11 10 -16 -128 -12 -160 4
l-27 14 23 5 c42 8 153 6 174 -3z m33 -77 c-21 -2 -55 -2 -75 0 -21 2 -4 4 37
4 41 0 58 -2 38 -4z m7 -73 c-27 -5 -63 -8 -80 -8 -29 0 -29 0 -5 8 14 4 50 8
80 8 l55 -1 -50 -7z m40 -86 c-38 -8 -86 -13 -105 -11 -32 2 -31 3 20 14 30 6
78 11 105 11 l50 0 -70 -14z m48 -21 c-7 -2 -19 -2 -25 0 -7 3 -2 5 12 5 14 0
19 -2 13 -5z m-46 -9 c-3 -3 -12 -4 -19 -1 -8 3 -5 6 6 6 11 1 17 -2 13 -5z
m-44 -11 c-7 -2 -19 -2 -25 0 -7 3 -2 5 12 5 14 0 19 -2 13 -5z m162 -58 c-45
-12 -175 -20 -150 -9 17 7 128 22 165 22 32 0 31 -1 -15 -13z m93 -70 c-6 -6
-132 -24 -137 -19 -9 8 7 13 69 22 63 8 79 7 68 -3z m-1224 -160 c7 -18 -15
-30 -71 -40 -39 -6 -43 -5 -43 13 0 34 102 58 114 27z m20 -51 c24 -9 19 -21
-10 -28 -14 -4 -50 -23 -80 -43 -30 -20 -57 -33 -61 -30 -3 4 -1 7 5 7 6 0 14
15 17 33 11 48 32 67 76 67 20 0 44 -3 53 -6z m6 -64 c0 -5 -8 -10 -17 -10
-10 0 -29 -3 -43 -6 -24 -6 -25 -6 -5 9 22 18 65 23 65 7z m24 -55 c7 -19 -20
-30 -62 -26 -18 1 -5 20 22 31 30 12 33 12 40 -5z m-334 -331 c-17 -40 -19
-43 -14 -14 6 32 25 72 31 66 1 -1 -6 -24 -17 -52z m107 -286 c-3 -8 -6 -5 -6
6 -1 11 2 17 5 13 3 -3 4 -12 1 -19z m112 -83 c-10 -39 -29 -119 -40 -180 -12
-60 -30 -144 -41 -185 -11 -41 -28 -106 -38 -145 -27 -101 -24 -38 4 107 43
217 118 490 131 476 2 -2 -5 -35 -16 -73z m-102 -247 c-3 -7 -5 -2 -5 12 0 14
2 19 5 13 2 -7 2 -19 0 -25z m1764 -45 c-65 -66 -121 -168 -121 -222 0 -59
-16 -70 -24 -17 -6 39 -3 54 20 96 32 59 96 136 143 173 19 15 35 27 37 27 1
0 -23 -26 -55 -57z m-1774 5 c-3 -8 -6 -5 -6 6 -1 11 2 17 5 13 3 -3 4 -12 1
-19z m1566 -195 c-32 -4 -33 -5 -34 -56 0 -29 -4 -72 -7 -96 -7 -43 -8 -44
-24 -27 -14 13 -18 34 -18 92 0 70 -1 74 -22 75 -44 2 34 17 87 16 33 0 39 -2
18 -4z m-150 -10 c-7 -2 -19 -2 -25 0 -7 3 -2 5 12 5 14 0 19 -2 13 -5z"/>
<path d="M6247 9783 c-4 -3 -7 -11 -7 -17 0 -6 5 -5 12 2 6 6 9 14 7 17 -3 3
-9 2 -12 -2z"/>
<path d="M5521 9714 c0 -11 3 -14 6 -6 3 7 2 16 -1 19 -3 4 -6 -2 -5 -13z"/>
<path d="M5326 9433 c-6 -14 -5 -15 5 -6 7 7 10 15 7 18 -3 3 -9 -2 -12 -12z"/>
<path d="M4815 9415 c-24 -12 -25 -14 -5 -8 14 3 33 6 42 5 10 0 20 3 23 9 9
14 -26 10 -60 -6z"/>
<path d="M5205 9412 c-5 -6 6 -32 14 -32 3 0 12 9 18 19 11 17 10 20 -8 18
-11 -1 -22 -3 -24 -5z"/>
<path d="M4099 9242 c-109 -65 -152 -94 -191 -130 -16 -14 -28 -22 -28 -17 0
11 51 65 62 65 8 0 158 100 158 105 0 7 -66 -30 -104 -57 -21 -15 -44 -28 -50
-28 -26 0 -134 -132 -210 -257 -5 -10 2 -13 26 -13 29 0 39 9 83 67 66 88 155
176 229 226 164 111 175 128 25 39z m-259 -236 c0 -2 -8 -10 -17 -17 -16 -13
-17 -12 -4 4 13 16 21 21 21 13z"/>
<path d="M3641 9184 c0 -11 3 -14 6 -6 3 7 2 16 -1 19 -3 4 -6 -2 -5 -13z"/>
<path d="M3690 9186 c0 -2 7 -7 16 -10 8 -3 12 -2 9 4 -6 10 -25 14 -25 6z"/>
<path d="M3865 9152 c-49 -33 -264 -251 -254 -258 4 -2 29 17 56 44 34 34 37
35 10 6 -39 -42 -37 -70 1 -36 38 32 111 125 106 134 -3 4 0 8 5 8 6 0 11 5
11 11 0 6 26 35 58 65 64 60 66 67 7 26z"/>
<path d="M3616 9153 c-6 -14 -5 -15 5 -6 7 7 10 15 7 18 -3 3 -9 -2 -12 -12z"/>
<path d="M7060 9140 c0 -5 5 -10 11 -10 5 0 7 5 4 10 -3 6 -8 10 -11 10 -2 0
-4 -4 -4 -10z"/>
<path d="M3673 9083 c-33 -32 -79 -87 -102 -123 -23 -36 -31 -52 -19 -36 13
16 34 41 46 55 20 22 23 23 18 6 -5 -14 0 -12 18 10 14 17 25 35 25 40 0 6 -9
-1 -19 -14 -11 -13 -20 -19 -20 -14 0 12 41 50 45 43 2 -3 22 16 45 43 58 65
35 59 -37 -10z"/>
<path d="M3563 9113 c-7 -2 -13 -9 -13 -15 0 -7 5 -7 13 1 8 6 18 7 22 3 5 -4
5 -1 1 6 -4 6 -8 12 -9 11 -1 0 -8 -3 -14 -6z"/>
<path d="M3692 9033 c-41 -43 -80 -76 -86 -75 -6 2 -8 1 -5 -3 4 -3 -6 -20
-22 -38 -16 -17 -27 -32 -25 -34 4 -4 167 155 206 200 49 57 4 24 -68 -50z"/>
<path d="M3530 9066 c0 -8 4 -17 9 -20 5 -4 7 3 4 14 -6 23 -13 26 -13 6z"/>
<path d="M3525 9019 c-4 -6 -5 -12 -2 -15 2 -3 7 2 10 11 7 17 1 20 -8 4z"/>
<path d="M7087 8955 c3 -16 10 -39 16 -50 6 -11 14 -60 18 -110 l7 -90 -3 95
c-2 70 -8 107 -24 140 -16 35 -19 38 -14 15z"/>
<path d="M7173 8870 c0 -30 2 -43 4 -27 2 15 2 39 0 55 -2 15 -4 2 -4 -28z"/>
<path d="M3470 8640 c-20 -6 -21 -8 -5 -8 11 0 31 4 45 8 20 6 21 8 5 8 -11 0
-31 -4 -45 -8z"/>
<path d="M3365 8605 l-30 -14 30 6 c17 3 41 10 55 14 l25 7 -25 1 c-14 0 -38
-6 -55 -14z"/>
<path d="M3115 8600 c-3 -6 1 -7 9 -4 18 7 21 14 7 14 -6 0 -13 -4 -16 -10z"/>
<path d="M3072 8573 c-30 -21 -71 -116 -43 -99 5 3 12 18 16 33 3 16 18 40 33
56 29 31 28 33 -6 10z"/>
<path d="M3093 8518 c-29 -32 -63 -90 -63 -109 0 -27 28 -17 67 25 l38 41 -35
-30 c-19 -17 -36 -33 -38 -38 -2 -4 -8 -5 -13 -2 -11 7 25 81 54 113 11 12 18
22 15 22 -2 0 -14 -10 -25 -22z"/>
<path d="M3160 8489 c-22 -18 -22 -19 -3 -10 12 6 25 16 28 21 9 15 3 12 -25
-11z"/>
<path d="M3099 8473 l-24 -28 28 24 c25 23 32 31 24 31 -2 0 -14 -12 -28 -27z"/>
<path d="M3169 8463 c-13 -16 -12 -17 4 -4 9 7 17 15 17 17 0 8 -8 3 -21 -13z"/>
<path d="M3139 8413 c-13 -16 -12 -17 4 -4 9 7 17 15 17 17 0 8 -8 3 -21 -13z"/>
<path d="M3110 8310 c-14 -11 -20 -20 -14 -20 6 0 19 9 29 20 23 25 17 25 -15
0z"/>
<path d="M3018 8291 c-1 -5 -27 -35 -56 -67 -29 -33 -57 -64 -61 -70 -16 -20
-71 -120 -71 -130 0 -5 17 20 38 55 20 35 55 83 77 106 22 23 33 32 24 21 -73
-96 -148 -253 -133 -278 3 -5 -1 -30 -10 -56 -20 -65 -31 -162 -16 -142 10 12
11 11 4 -5 -12 -34 -64 -289 -60 -300 2 -5 8 8 14 30 114 403 156 515 233 609
5 6 24 34 43 63 32 49 33 54 24 99 -10 45 -11 47 -25 28 -14 -18 -14 -17 -8
14 4 19 3 32 -3 32 -6 0 -12 -4 -14 -9z m-34 -116 c-14 -19 -29 -35 -31 -35
-5 0 7 18 36 53 26 31 23 18 -5 -18z m-91 -235 c-27 -68 -41 -92 -28 -50 11
38 47 121 51 117 2 -1 -8 -32 -23 -67z m-62 -167 c-12 -20 -14 -14 -5 12 4 9
9 14 11 11 3 -2 0 -13 -6 -23z"/>
<path d="M6837 8189 c-34 -17 -57 -35 -54 -42 56 -141 81 -178 109 -161 7 4 2
12 -13 20 l-24 13 25 2 c17 1 20 3 8 6 -10 2 -18 9 -18 14 0 5 8 9 18 10 11 0
7 4 -10 11 -30 10 -36 24 -15 31 9 3 7 10 -6 25 -18 20 -18 21 17 57 55 56 49
58 -37 14z"/>
<path d="M2806 7965 c-9 -26 -7 -32 5 -12 6 10 9 21 6 23 -2 3 -7 -2 -11 -11z"/>
<path d="M6867 7949 c7 -7 15 -10 18 -7 3 3 -2 9 -12 12 -14 6 -15 5 -6 -5z"/>
<path d="M6885 7920 c3 -5 13 -10 21 -10 8 0 12 5 9 10 -3 6 -13 10 -21 10 -8
0 -12 -4 -9 -10z"/>
<path d="M8008 7603 c6 -2 18 -2 25 0 6 3 1 5 -13 5 -14 0 -19 -2 -12 -5z"/>
<path d="M2911 7395 c-1 -11 -4 -31 -6 -45 l-6 -25 11 25 c6 13 9 33 7 45 -4
19 -4 19 -6 0z"/>
<path d="M2872 7215 c0 -16 2 -22 5 -12 2 9 2 23 0 30 -3 6 -5 -1 -5 -18z"/>
<path d="M2852 7120 c-20 -115 -24 -145 -18 -139 9 9 38 169 34 187 -2 10 -9
-12 -16 -48z"/>
<path d="M6600 7071 c-6 -12 -7 -21 -1 -21 10 0 24 30 17 37 -2 3 -9 -5 -16
-16z"/>
<path d="M6715 7070 c3 -5 -3 -10 -13 -10 -11 0 -23 -7 -26 -16 -3 -8 -2 -13
3 -10 5 3 24 -1 42 -9 l34 -15 -42 3 c-24 2 -43 0 -43 -4 0 -5 10 -9 23 -9 45
0 313 -20 345 -26 44 -7 35 7 -23 40 -71 39 -318 86 -300 56z"/>
<path d="M5813 6973 c15 -2 37 -2 50 0 12 2 0 4 -28 4 -27 0 -38 -2 -22 -4z"/>
<path d="M6408 6963 c23 -2 59 -2 80 0 20 2 1 4 -43 4 -44 0 -61 -2 -37 -4z"/>
<path d="M1000 6949 c0 -5 5 -7 10 -4 6 3 10 8 10 11 0 2 -4 4 -10 4 -5 0 -10
-5 -10 -11z"/>
<path d="M5988 6953 c7 -3 16 -2 19 1 4 3 -2 6 -13 5 -11 0 -14 -3 -6 -6z"/>
<path d="M6568 6953 c17 -2 47 -2 65 0 17 2 3 4 -33 4 -36 0 -50 -2 -32 -4z"/>
<path d="M6825 6931 c3 -6 -44 -9 -122 -8 l-128 2 1 -55 c0 -30 3 -68 7 -85 3
-16 8 -38 10 -48 5 -27 22 -25 25 2 2 14 31 52 65 86 80 79 134 96 284 88 57
-3 101 -9 98 -13 -2 -4 -39 -10 -82 -13 -117 -9 -200 -38 -250 -88 -23 -22
-50 -57 -59 -77 -28 -57 -29 -169 -4 -292 24 -120 103 -363 129 -400 10 -14
21 -38 25 -53 4 -17 11 -25 18 -21 7 4 8 3 4 -5 -9 -13 63 -141 77 -138 5 1
11 -6 12 -15 3 -16 62 -98 70 -98 10 0 -11 43 -25 52 -17 11 -17 14 2 57 18
44 19 54 8 205 -7 87 -13 224 -14 305 -1 142 0 148 30 226 33 83 64 180 64
198 0 13 45 54 68 61 10 4 24 22 29 41 l11 34 -42 10 c-38 8 -36 9 34 10 129
1 377 -28 400 -46 2 -2 -2 -8 -10 -14 -11 -7 -7 -8 13 -3 16 4 33 1 42 -6 8
-7 15 -8 15 -3 0 36 -143 67 -380 82 -91 6 -212 16 -270 21 -131 12 -163 13
-155 1z"/>
<path d="M6858 6903 c6 -2 18 -2 25 0 6 3 1 5 -13 5 -14 0 -19 -2 -12 -5z"/>
<path d="M7228 6883 c6 -2 18 -2 25 0 6 3 1 5 -13 5 -14 0 -19 -2 -12 -5z"/>
<path d="M6724 6848 c-40 -27 -56 -48 -88 -111 -34 -70 -40 -77 -55 -64 -19
16 -96 47 -114 46 -6 0 6 -7 28 -15 65 -24 69 -47 8 -59 -20 -4 -54 -15 -74
-26 -34 -17 -38 -22 -37 -59 0 -34 3 -39 15 -29 7 7 12 18 9 24 -5 15 28 31
81 40 28 5 34 4 23 -4 -10 -7 -11 -11 -2 -11 7 0 12 -14 12 -34 0 -39 -17 -58
-22 -24 -3 21 -4 21 -21 4 -18 -18 -18 -18 -24 3 -7 26 -18 27 -28 4 -12 -28
-10 -54 9 -113 29 -89 97 -228 79 -162 -2 10 6 27 21 41 16 15 26 19 26 11 0
-7 -9 -21 -21 -31 -17 -14 -18 -21 -9 -39 12 -22 30 -19 30 6 0 8 -4 12 -10 9
-5 -3 -7 0 -4 9 8 21 31 9 39 -21 3 -14 8 -23 11 -20 3 3 1 21 -4 41 -15 54 3
43 31 -18 24 -51 27 -103 6 -90 -5 3 -7 10 -3 15 7 11 -14 39 -29 39 -5 0 -2
-9 8 -20 10 -11 15 -20 11 -20 -3 0 0 -13 9 -30 8 -16 17 -42 19 -57 2 -16 9
-41 16 -58 7 -16 14 -35 14 -40 1 -16 78 -145 86 -145 4 0 13 -13 20 -30 12
-29 30 -41 30 -20 0 6 -4 10 -9 10 -5 0 -12 17 -16 38 -3 20 -10 44 -16 52 -7
11 -8 6 -3 -15 l6 -30 -17 24 c-14 19 -16 28 -7 42 7 10 8 20 3 24 -5 3 -12
19 -16 35 -8 35 -25 41 -19 8 2 -13 -5 4 -16 37 -11 33 -20 67 -20 76 0 8 -4
19 -9 25 -4 5 -11 23 -15 39 l-6 30 15 -25 16 -25 -7 25 c-4 14 -13 46 -21 73
-7 26 -20 71 -28 100 -8 28 -14 66 -14 82 1 20 5 10 14 -30 23 -111 111 -356
146 -407 11 -14 19 -31 19 -38 0 -6 7 -18 16 -27 8 -9 12 -23 9 -31 -3 -9 -3
-13 1 -9 4 4 12 -2 18 -13 44 -79 113 -180 123 -180 6 0 15 -5 19 -12 5 -8 2
-9 -12 -4 -14 5 -11 -1 11 -26 17 -18 31 -34 32 -36 0 -2 8 -4 16 -6 17 -2 41
-25 50 -48 4 -11 12 -15 22 -12 8 3 32 -3 52 -13 112 -58 204 -66 297 -25 54
25 59 40 5 18 -134 -55 -288 -7 -429 134 -135 134 -254 343 -334 582 -78 235
-97 396 -56 485 27 60 79 122 120 144 19 10 30 18 24 19 -7 0 -34 -15 -60 -32z
m-126 -304 c7 -50 12 -111 11 -135 l-1 -44 -14 55 c-16 60 -28 238 -15 224 4
-5 13 -50 19 -100z m142 -614 c0 -11 -2 -20 -4 -20 -2 0 -6 9 -9 20 -3 11 -1
20 4 20 5 0 9 -9 9 -20z m280 -305 c13 -14 21 -25 18 -25 -2 0 -15 11 -28 25
-13 14 -21 25 -18 25 2 0 15 -11 28 -25z"/>
<path d="M6190 6836 c0 -2 8 -10 18 -17 15 -13 16 -12 3 4 -13 16 -21 21 -21
13z"/>
<path d="M7658 6763 c26 -27 56 -59 65 -73 l16 -25 -10 33 c-6 17 -22 41 -36
52 -13 10 -22 24 -18 29 3 6 0 8 -8 5 -8 -3 -20 2 -27 11 -7 8 -16 15 -21 15
-5 0 13 -21 39 -47z"/>
<path d="M6270 6601 c0 -38 -7 -104 -15 -147 -17 -88 -13 -113 5 -32 14 60 26
248 16 248 -3 0 -6 -31 -6 -69z"/>
<path d="M4483 6483 c-18 -2 -33 -8 -33 -13 0 -5 -8 -7 -17 -4 -15 5 -15 4 -3
-5 22 -15 11 -20 -57 -23 -33 -2 -59 -6 -57 -10 6 -9 -40 -21 -78 -21 -15 0
-25 -4 -23 -7 3 -4 -14 -10 -38 -13 -30 -4 -49 -1 -67 11 -33 22 -115 21 -300
-2 -80 -10 -192 -23 -250 -30 -102 -11 -107 -12 -137 -46 -31 -34 -31 -35 -52
-16 -18 16 -32 18 -98 14 -75 -6 -173 -40 -173 -60 0 -4 -9 -8 -20 -8 -11 0
-20 -3 -20 -8 0 -4 -21 -18 -46 -31 -43 -23 -134 -125 -134 -151 0 -6 -8 -23
-17 -37 -24 -36 -41 -103 -49 -190 -7 -75 10 -173 45 -258 9 -22 16 -45 16
-52 0 -7 19 -41 43 -77 43 -65 99 -118 139 -130 11 -4 28 -18 37 -31 17 -26
83 -63 149 -84 20 -7 37 -16 37 -21 0 -5 13 -11 30 -15 36 -8 136 -72 170
-109 31 -35 158 -95 215 -103 42 -5 45 -4 64 28 22 35 29 33 10 -3 -9 -16 -8
-19 2 -16 19 6 41 -40 41 -84 1 -21 5 -38 9 -38 5 0 9 9 9 20 0 17 2 18 14 8
8 -8 12 -29 9 -58 l-3 -45 12 32 c17 42 31 55 17 15 -6 -17 -9 -41 -6 -54 4
-21 4 -21 6 4 0 15 5 30 11 33 6 4 7 -6 4 -25 -4 -17 -2 -30 4 -30 5 0 12 -9
15 -21 3 -12 10 -18 17 -14 7 5 9 -2 4 -19 -4 -17 -2 -26 6 -26 7 0 10 -7 6
-16 -5 -14 -4 -15 9 -4 13 11 14 8 10 -21 -5 -29 -4 -31 5 -11 5 12 14 32 19
45 6 15 7 6 4 -29 -3 -32 -1 -54 6 -58 6 -4 12 -19 12 -34 1 -24 3 -23 9 8 4
21 8 26 9 14 1 -27 24 -46 44 -38 12 4 16 0 15 -18 0 -12 0 -32 2 -43 2 -17 3
-17 10 5 7 22 8 21 9 -13 1 -24 5 -36 11 -32 15 9 40 -14 40 -36 0 -11 7 -19
16 -19 10 0 14 -6 11 -14 -4 -10 -1 -13 9 -9 10 4 14 -2 14 -21 0 -27 14 -35
24 -13 4 6 5 3 2 -9 -4 -24 11 -57 23 -50 4 3 18 -4 30 -15 12 -11 26 -17 31
-14 6 3 10 1 10 -4 0 -6 -4 -11 -9 -11 -6 0 -9 -9 -8 -19 0 -11 6 -17 14 -14
8 3 13 -2 13 -13 0 -15 2 -16 9 -6 6 10 10 7 15 -13 4 -15 9 -25 13 -22 3 3
14 -3 26 -13 11 -11 25 -17 30 -13 6 3 7 1 3 -5 -3 -6 10 -23 31 -39 21 -15
40 -31 43 -34 3 -3 24 -18 47 -32 23 -14 44 -31 48 -37 9 -14 -18 -13 -33 2
-9 9 -12 9 -12 -2 0 -7 -3 -11 -6 -7 -3 3 -18 1 -32 -4 -18 -7 -28 -6 -34 3
-6 10 -8 9 -9 -4 -2 -26 -4 -32 -11 -43 -12 -19 -48 -226 -48 -277 0 -29 -4
-65 -10 -82 -5 -17 -19 -92 -30 -166 -23 -147 -22 -144 -37 -180 -6 -14 -14
-40 -18 -58 -4 -18 -13 -45 -21 -60 -8 -15 -14 -34 -14 -44 0 -9 -3 -18 -7
-20 -10 -4 -52 -76 -60 -100 -3 -10 -9 -18 -14 -18 -5 0 -9 -6 -9 -13 0 -8
-11 -24 -25 -37 -14 -13 -25 -28 -25 -34 0 -6 -16 -28 -35 -48 -19 -20 -35
-41 -35 -47 0 -6 -3 -11 -7 -11 -5 0 -19 -9 -33 -20 l-25 -20 25 -20 c37 -29
8 -24 -62 11 -77 39 -130 44 -159 13 -11 -11 -19 -28 -17 -35 2 -8 -2 -13 -9
-12 -7 2 -10 -4 -6 -13 4 -12 0 -14 -23 -8 -28 6 -28 6 -9 -9 11 -8 17 -19 12
-23 -4 -4 -7 -2 -7 5 0 7 -5 9 -10 6 -8 -5 -7 -12 2 -23 12 -14 10 -14 -12 -2
-23 12 -24 12 -12 -3 12 -14 7 -15 -50 -13 -35 2 -74 8 -86 15 -33 18 -40 6
-11 -18 13 -11 20 -20 16 -21 -5 0 -1 -7 7 -16 18 -17 22 -39 6 -29 -5 3 -10
1 -10 -4 0 -6 5 -11 11 -11 8 0 8 -4 0 -14 -9 -11 -9 -15 1 -19 9 -4 7 -6 -4
-6 -9 -1 -20 4 -23 9 -11 18 -24 1 -19 -25 3 -15 0 -25 -7 -25 -6 0 -9 -6 -6
-14 4 -9 0 -12 -13 -9 -10 3 -21 0 -24 -6 -5 -7 0 -9 11 -5 10 3 7 -1 -6 -9
-18 -11 -20 -16 -10 -20 8 -3 4 -6 -10 -6 -16 -1 -21 -5 -17 -16 4 -10 -1 -15
-16 -15 -16 0 -18 -3 -9 -14 9 -11 6 -12 -16 -8 -27 4 -27 4 -8 -12 19 -15 19
-16 1 -9 -14 5 -17 3 -11 -6 5 -10 2 -11 -14 -6 -12 3 -21 2 -21 -4 0 -5 8
-12 18 -14 11 -3 9 -5 -8 -6 -20 -1 -22 -3 -10 -11 13 -9 13 -10 0 -10 -18 -1
-96 -69 -93 -81 2 -5 -12 -13 -30 -18 -17 -5 -24 -10 -14 -10 9 -1 17 -6 17
-11 0 -6 -16 -10 -35 -8 -19 1 -37 -1 -41 -5 -4 -4 2 -7 14 -7 15 0 20 -5 16
-15 -4 -8 -13 -15 -21 -15 -9 0 -13 -6 -9 -15 4 -11 -2 -15 -24 -15 -21 0 -30
-5 -30 -16 0 -10 -5 -14 -16 -10 -8 3 -12 2 -9 -4 3 -6 0 -10 -7 -10 -21 0
-43 -41 -28 -50 9 -6 7 -11 -8 -19 -12 -6 -25 -11 -29 -10 -4 1 -21 0 -38 -1
-29 -2 -29 -2 -5 -9 l25 -7 -25 -8 -25 -8 25 -9 c19 -6 14 -7 -17 -3 -28 4
-43 2 -43 -5 0 -6 8 -12 18 -12 9 -1 -1 -5 -23 -9 -39 -7 -39 -7 -7 -9 48 -2
39 -21 -10 -22 -35 -1 -38 -2 -18 -8 23 -7 22 -8 -13 -15 -32 -6 -37 -9 -26
-22 10 -13 6 -14 -32 -9 -24 4 -50 8 -57 11 -7 2 -10 -1 -7 -6 3 -6 15 -10 26
-10 11 0 17 -5 14 -10 -3 -6 -18 -7 -33 -3 -24 6 -26 5 -14 -10 12 -14 10 -17
-13 -23 -16 -4 -24 -12 -21 -19 6 -18 -43 -12 -56 6 -8 11 -9 10 -5 -3 3 -9
-1 -19 -9 -22 -17 -7 -18 -23 -1 -29 6 -2 5 -3 -3 -3 -10 1 -14 10 -12 26 l2
24 -23 -22 c-13 -12 -29 -22 -35 -22 -7 0 -11 -3 -11 -8 5 -28 -2 -35 -17 -16
-15 19 -15 19 -11 -2 4 -19 0 -21 -27 -20 -38 3 -58 -3 -50 -15 3 -5 -19 -9
-48 -10 l-53 -1 40 -13 40 -13 -47 -1 c-30 -1 -53 -7 -64 -18 -9 -9 -24 -17
-33 -18 -10 -1 -27 -11 -39 -23 -14 -14 -35 -22 -60 -23 -33 -1 -34 -2 -12 -9
23 -7 23 -8 -9 -9 -19 -1 -31 -4 -27 -8 9 -10 -64 -44 -77 -36 -6 4 -8 0 -4
-10 4 -12 2 -14 -10 -10 -11 4 -14 2 -9 -5 4 -7 3 -12 -3 -12 -5 0 -17 -7 -25
-16 -9 -8 -16 -11 -16 -5 0 6 -5 11 -11 11 -5 0 -8 -4 -5 -9 4 -5 -4 -7 -16
-4 -17 3 -19 2 -9 -5 11 -8 9 -11 -8 -17 -11 -3 -31 -3 -43 0 -17 5 -19 4 -9
-4 16 -10 25 -45 10 -35 -5 3 -7 10 -4 15 4 5 -3 9 -14 9 -12 0 -21 -5 -21
-11 0 -5 5 -7 10 -4 6 3 10 1 10 -5 0 -6 -7 -13 -16 -17 -12 -4 -13 -7 -3 -14
9 -5 -3 -12 -34 -21 -26 -6 -47 -18 -47 -25 0 -7 -10 -14 -22 -14 -15 -1 -11
-4 12 -9 l35 -7 -45 -2 c-45 -2 -45 -2 -20 -17 25 -15 25 -15 1 -8 -15 4 -21
2 -17 -4 3 -5 -11 -17 -32 -26 -33 -15 -34 -16 -7 -11 20 4 25 3 16 -3 -11 -8
-11 -11 0 -16 8 -3 3 -3 -10 0 -15 4 -21 2 -17 -4 4 -6 -3 -8 -16 -5 -19 4
-20 3 -8 -7 12 -9 9 -10 -15 -7 -16 2 -24 2 -17 0 6 -3 12 -8 12 -13 0 -5 8
-7 18 -3 9 3 14 3 10 -1 -6 -7 -25 -12 -58 -16 -8 -1 -4 -6 10 -11 23 -8 23
-8 -7 -6 -24 3 -30 0 -28 -13 2 -8 -3 -24 -11 -35 -10 -13 -14 -15 -14 -4 0
12 -2 12 -10 -1 -7 -11 -5 -17 8 -22 11 -4 3 -7 -23 -8 -39 -2 -39 -3 -10 -10
l30 -8 -30 -2 c-26 -1 -27 -3 -10 -10 17 -7 16 -9 -10 -9 -23 -1 -27 -4 -15
-11 12 -8 12 -10 -5 -11 l-20 0 20 -9 c18 -8 18 -9 -5 -10 -23 -1 -23 -2 -5
-10 17 -7 17 -9 3 -9 -10 -1 -18 -5 -18 -11 0 -5 -8 -10 -17 -10 -15 0 -16 -2
-3 -10 12 -8 10 -10 -10 -11 -23 0 -23 -1 -5 -9 17 -7 16 -9 -10 -10 -30 -2
-30 -2 -5 -10 24 -8 24 -8 2 -9 -20 -1 -21 -4 -12 -21 9 -18 8 -20 -15 -20
-14 0 -25 -4 -25 -9 0 -4 12 -7 28 -5 15 2 19 1 10 -2 -10 -3 -18 -10 -18 -15
0 -6 -4 -7 -10 -4 -9 6 -14 -8 -11 -28 1 -4 -14 -17 -31 -28 -29 -18 -30 -20
-8 -14 l25 6 -25 -15 c-16 -10 -19 -16 -10 -16 9 0 5 -6 -10 -15 -14 -8 -19
-14 -12 -15 6 0 12 -5 12 -10 0 -7 -8 -7 -22 1 -19 9 -21 9 -10 -2 18 -19 15
-29 -10 -30 l-23 0 22 -9 c28 -12 30 -20 3 -13 -16 4 -19 2 -13 -12 5 -13 3
-16 -6 -10 -10 5 -11 2 -7 -13 5 -13 -2 -30 -20 -51 -14 -17 -23 -31 -19 -31
4 0 2 -7 -5 -15 -7 -8 -10 -21 -7 -28 3 -7 -3 -18 -12 -24 -12 -7 -17 -22 -16
-42 1 -17 -2 -31 -7 -31 -5 0 -6 -4 -3 -10 3 -5 1 -10 -4 -10 -6 0 -11 -11
-11 -25 0 -14 -4 -25 -10 -25 -5 0 -10 -5 -10 -11 0 -5 4 -8 10 -4 5 3 3 -7
-5 -22 -8 -15 -15 -34 -15 -41 0 -10 223 -12 1097 -10 l1097 3 1 57 c0 32 -2
58 -5 58 -13 0 22 327 66 605 16 107 79 424 96 490 6 22 11 45 12 50 1 6 8 27
15 47 7 21 10 42 6 48 -3 5 -2 10 3 10 5 0 16 26 24 57 44 164 150 407 254
578 66 109 184 275 206 288 11 8 52 -7 159 -58 429 -203 774 -314 1149 -370
124 -19 400 -30 400 -17 0 5 -35 10 -79 10 -43 0 -119 3 -170 7 -77 6 -91 10
-91 25 0 15 5 16 43 8 82 -18 107 -20 107 -9 0 15 47 14 53 -1 4 -10 6 -10 6
0 1 19 21 14 22 -5 0 -15 2 -15 9 2 14 32 12 35 -21 28 l-30 -6 5 39 c5 29 4
34 -3 19 -5 -11 -10 -14 -10 -7 -1 7 -5 10 -11 7 -6 -3 -7 1 -4 9 3 9 10 13
15 10 6 -3 7 6 4 23 l-5 28 12 -30 c10 -26 12 -27 18 -10 6 17 8 14 15 -14 10
-46 31 -67 50 -51 16 13 58 4 49 -12 -3 -5 -17 -7 -30 -4 -14 4 -24 2 -24 -4
0 -18 57 -11 65 8 6 16 8 16 22 -3 14 -18 15 -18 9 -1 -4 13 -2 17 8 13 10 -4
12 1 9 16 -3 15 -2 18 4 9 7 -9 12 -6 21 13 16 36 14 45 -3 15 -9 -15 -14 -19
-15 -10 0 13 -1 13 -10 0 -9 -13 -11 -13 -20 0 -6 10 -10 11 -10 2 0 -8 -6 -6
-18 5 -13 12 -16 21 -9 28 6 7 11 6 14 -3 4 -10 9 -8 19 5 13 17 15 17 28 0
12 -15 14 -16 20 -2 4 12 17 15 53 12 26 -3 49 -10 51 -17 3 -9 -7 -11 -37 -6
-25 3 -41 1 -41 -5 0 -6 5 -7 11 -3 9 5 10 -1 5 -22 l-6 -29 15 25 16 25 -5
-30 -5 -30 12 28 c6 15 17 25 23 23 15 -6 24 16 17 42 -4 17 -13 20 -70 18
-39 -1 -68 3 -74 11 -6 6 -19 10 -30 8 -10 -2 -19 0 -19 6 0 5 12 7 28 4 15
-3 33 -7 41 -9 8 -1 33 1 55 5 24 4 49 3 60 -3 14 -7 17 -7 14 3 -6 17 -48 21
-97 10 -23 -5 -41 -5 -41 -1 0 4 26 11 58 16 l57 8 -45 7 c-44 6 -43 6 18 7
34 1 62 7 62 12 0 6 -22 8 -57 6 -51 -5 -53 -4 -18 4 22 4 78 22 124 39 46 16
88 28 93 25 5 -3 32 -3 60 1 49 7 50 8 28 20 -22 12 -23 13 -4 18 10 3 1 4
-21 2 -47 -5 -177 -39 -171 -46 2 -2 -8 -4 -22 -5 -15 0 -67 -5 -117 -12 -120
-16 -343 -15 -485 3 -202 24 -487 96 -645 161 -33 14 -79 32 -102 41 -24 8
-43 18 -43 22 0 4 41 20 90 35 50 16 93 32 96 37 3 5 16 9 30 9 14 0 27 7 30
15 3 8 24 20 45 27 22 6 44 17 50 25 6 7 19 13 28 13 9 0 21 4 27 9 5 5 27 19
49 31 22 13 60 34 85 48 25 14 54 30 65 36 11 6 22 13 25 16 10 10 72 40 82
40 6 0 23 11 39 25 16 13 57 39 90 56 34 18 63 39 66 46 3 7 14 13 24 13 10 0
19 3 19 8 0 4 24 19 53 35 29 15 68 41 86 57 18 17 34 30 37 30 18 0 213 184
244 230 40 58 45 85 19 101 -12 7 -11 9 3 9 10 0 15 6 12 18 -5 16 7 17 153
15 268 -4 297 -4 333 3 19 3 56 7 82 8 27 0 48 4 48 8 0 5 3 7 8 7 17 -3 72
14 72 23 0 5 5 6 10 3 6 -3 10 -1 10 4 0 6 3 10 8 9 20 -6 52 15 53 35 0 19 1
20 8 4 6 -16 11 -15 45 15 61 52 96 85 96 92 0 4 11 19 25 34 14 15 25 35 25
44 0 10 4 18 9 18 5 0 15 25 22 55 7 30 16 55 21 55 5 0 7 4 4 9 -3 4 -1 23 4
41 7 23 6 38 -1 47 -9 10 -7 13 7 13 14 0 15 3 6 12 -17 17 -15 28 5 28 13 0
14 3 5 12 -7 7 -12 23 -12 36 0 19 -4 22 -22 17 -15 -4 -19 -3 -10 3 11 7 11
11 0 20 -23 18 -67 25 -83 12 -8 -7 -15 -9 -15 -5 0 5 -11 -5 -25 -21 -14 -16
-23 -21 -19 -11 6 18 -10 24 -21 8 -3 -5 -17 2 -31 16 -23 23 -24 27 -10 35
51 29 105 121 114 194 l5 45 -29 -7 c-16 -4 -33 -7 -39 -6 -5 0 -71 3 -145 6
-174 6 -233 17 -393 72 -166 58 -181 60 -212 40 -37 -24 -47 -58 -30 -98 23
-52 44 -70 135 -117 56 -29 101 -61 133 -95 44 -48 58 -76 38 -76 -5 0 -12 -8
-14 -17 -4 -17 -5 -17 -6 0 0 9 -6 17 -12 17 -6 0 -9 -6 -6 -14 4 -9 -2 -12
-19 -10 -17 1 -24 -3 -25 -14 0 -14 -2 -13 -9 3 l-9 20 0 -20 c-1 -11 -4 -16
-9 -10 -11 16 -71 12 -82 -5 -9 -13 -11 -13 -20 0 -8 12 -10 12 -10 -5 -1 -19
-1 -19 -14 -2 -8 10 -18 17 -22 16 -5 -1 -11 -1 -14 1 -3 1 -16 4 -30 6 -13 3
-28 11 -33 19 -4 8 -14 12 -22 9 -8 -4 -17 1 -21 9 -3 9 -12 13 -20 10 -8 -3
-14 -1 -14 3 0 5 -12 10 -26 11 -15 0 -30 7 -34 13 -4 7 -13 9 -19 6 -6 -4
-11 0 -11 9 0 11 -5 15 -15 11 -11 -4 -15 0 -13 12 2 10 -3 17 -12 17 -15 0
-28 23 -49 87 -17 52 -15 238 2 280 26 62 35 64 155 38 114 -24 227 -31 252
-15 81 52 263 77 404 55 76 -11 85 -11 141 10 60 22 90 40 68 40 -7 0 -23 -4
-36 -9 -30 -12 -114 13 -202 59 -55 29 -66 31 -130 26 -38 -2 -104 -11 -145
-20 -41 -8 -100 -15 -130 -15 l-55 0 26 23 c28 24 220 112 279 128 85 22 108
27 150 31 25 2 61 -2 81 -9 27 -9 53 -10 100 -2 149 22 157 22 194 -6 18 -14
38 -26 44 -26 6 0 18 -11 27 -25 9 -14 19 -23 23 -21 3 2 17 -2 31 -10 l25
-14 -27 4 c-31 5 -36 -5 -13 -24 8 -7 12 -16 10 -21 -7 -11 42 -42 54 -35 16
11 2 33 -30 46 -16 7 -29 17 -29 22 0 6 11 3 25 -6 31 -20 41 -21 25 -1 -7 8
-9 15 -5 15 5 0 0 10 -11 22 -10 12 -14 19 -9 16 6 -3 16 0 22 7 10 11 9 15
-7 20 -22 7 -27 25 -7 25 9 0 8 3 -2 9 -8 5 -10 14 -6 21 5 9 4 11 -3 6 -6 -4
-21 3 -33 15 l-21 21 24 -6 c12 -3 17 -3 10 0 -7 3 -17 15 -23 26 -10 18 -9
20 7 14 13 -4 11 1 -8 18 -18 16 -23 26 -15 29 9 4 9 6 0 6 -7 1 -13 6 -13 11
0 12 -10 24 -62 79 -77 81 -199 111 -241 60 -17 -21 -18 -21 -45 -4 -15 10
-31 24 -35 32 -5 7 -12 11 -18 8 -5 -4 -9 -1 -9 5 0 7 -7 10 -15 6 -8 -3 -15
-2 -15 3 0 5 -11 7 -25 6 -42 -5 -18 12 27 19 77 12 115 26 150 54 19 15 47
36 61 47 15 11 27 25 27 32 0 7 7 10 17 6 12 -5 14 -3 8 7 -5 8 -9 23 -10 34
-2 41 -116 136 -230 191 -34 17 -60 20 -175 19 -185 -1 -228 -22 -277 -133
-37 -84 -41 -147 -11 -191 13 -19 37 -41 53 -49 27 -13 217 -40 250 -35 8 1
15 -2 15 -7 0 -6 5 -7 12 -3 7 4 8 3 4 -5 -4 -6 -12 -9 -17 -6 -5 4 -9 1 -9
-6 0 -7 -3 -9 -7 -6 -3 4 -15 -3 -27 -16 -12 -12 -30 -22 -41 -22 -11 1 -28
-8 -37 -18 -9 -10 -19 -18 -22 -18 -17 2 -24 -1 -44 -19 -14 -14 -22 -16 -22
-8 0 8 -4 6 -11 -4 -5 -10 -16 -15 -24 -12 -8 4 -15 1 -15 -6 0 -10 -3 -10
-15 0 -12 10 -15 10 -15 0 0 -7 -7 -10 -15 -6 -8 3 -15 2 -15 -2 0 -4 -11 -12
-25 -18 -18 -9 -25 -9 -29 0 -2 6 -5 3 -5 -7 -1 -10 -6 -15 -11 -12 -6 4 -17
1 -25 -5 -8 -6 -19 -9 -25 -5 -5 3 -10 1 -10 -5 0 -7 -7 -9 -16 -6 -10 4 -25
-1 -35 -10 -15 -14 -19 -14 -19 -3 0 11 -2 11 -10 -1 -5 -8 -10 -11 -10 -6 0
6 -7 1 -15 -10 -9 -12 -14 -14 -15 -6 0 8 -5 10 -12 5 -21 -13 -42 -13 -50 0
-5 8 -8 6 -8 -6 0 -10 -6 -17 -12 -16 -20 2 -58 -12 -58 -22 0 -5 -6 -6 -12
-4 -14 5 -33 -9 -149 -116 -42 -39 -89 -77 -104 -85 -29 -15 -78 -17 -107 -6
-26 10 -108 92 -108 107 0 7 -7 15 -14 18 -16 7 -66 105 -66 130 0 9 -4 19
-10 22 -30 18 14 174 57 202 13 8 23 21 23 28 0 8 16 23 35 35 19 12 35 26 35
31 0 5 5 9 11 9 6 0 36 19 67 43 51 39 177 117 188 117 12 0 82 58 77 64 -3 3
1 6 9 6 19 0 143 63 224 115 115 73 274 258 368 428 35 63 101 235 94 243 -2
2 -35 -56 -73 -129 -71 -136 -180 -308 -237 -373 -88 -100 -279 -213 -423
-249 -325 -83 -579 61 -692 390 -39 116 -73 322 -73 449 l0 114 -32 6 c-17 3
-36 2 -42 -4 -7 -7 -5 -10 6 -10 21 0 25 -15 33 -130 6 -93 35 -266 54 -325 5
-16 12 -51 16 -76 6 -45 53 -156 77 -184 7 -8 33 -41 58 -74 25 -33 47 -58 49
-56 2 2 15 -7 30 -21 42 -39 153 -91 238 -109 43 -10 89 -21 103 -25 49 -16
-58 -11 -132 6 -94 22 -161 52 -233 107 -126 96 -196 203 -253 384 -42 133
-51 183 -65 363 l-12 155 -70 1 c-38 1 -85 -1 -102 -3z m-1518 -664 c2 -74 11
-172 19 -218 7 -47 12 -91 9 -97 -8 -21 -33 -4 -33 21 0 13 -4 26 -9 29 -19
12 -34 139 -28 240 6 91 23 174 33 163 3 -2 7 -64 9 -138z m1049 -1223 c-3
-15 -8 -25 -11 -23 -2 3 -1 17 3 31 3 15 8 25 11 23 2 -3 1 -17 -3 -31z m43
-58 c-3 -7 -5 -2 -5 12 0 14 2 19 5 13 2 -7 2 -19 0 -25z m2274 -503 c11 7 11
3 3 -19 -5 -13 -8 -13 -20 -1 -8 7 -14 22 -14 32 1 17 1 17 11 0 6 -9 14 -15
20 -12z m384 -13 c3 -8 3 -17 0 -20 -3 -3 -5 0 -5 6 0 7 -7 12 -15 12 -8 0
-15 4 -15 8 0 15 29 9 35 -6z m-351 -36 c-5 -13 -9 -14 -14 -5 -11 16 0 43 12
31 5 -5 6 -17 2 -26z m23 2 c-3 -8 -6 -5 -6 6 -1 11 2 17 5 13 3 -3 4 -12 1
-19z m268 13 c3 -5 0 -13 -6 -17 -8 -5 -9 -3 -4 6 6 10 4 12 -8 7 -10 -3 -17
-2 -17 3 0 13 27 13 35 1z m40 -9 c-3 -3 -11 0 -18 7 -9 10 -8 11 6 5 10 -3
15 -9 12 -12z m-455 -13 c0 -6 -4 -7 -10 -4 -5 3 -10 11 -10 16 0 6 5 7 10 4
6 -3 10 -11 10 -16z m-364 -604 c1 -8 -2 -15 -7 -15 -5 0 -9 10 -9 22 0 23 12
17 16 -7z m-2026 -708 c0 -2 -10 -12 -22 -23 l-23 -19 19 23 c18 21 26 27 26
19z m-82 -152 c-20 -16 -44 -21 -54 -11 -9 9 -3 12 23 13 19 1 33 0 31 -2z
m1812 -450 c0 -5 -5 -3 -10 5 -5 8 -10 20 -10 25 0 6 5 3 10 -5 5 -8 10 -19
10 -25z m127 19 c-3 -3 -12 -4 -19 -1 -8 3 -5 6 6 6 11 1 17 -2 13 -5z m-67
-34 c0 -5 -9 -10 -21 -10 -11 0 -17 5 -14 10 3 6 13 10 21 10 8 0 14 -4 14
-10z m-203 -42 c-3 -7 -5 -2 -5 12 0 14 2 19 5 13 2 -7 2 -19 0 -25z m185 13
c35 10 44 6 33 -11 -4 -7 -18 -9 -33 -5 -22 5 -24 4 -12 -9 7 -9 27 -20 44
-24 17 -5 32 -16 34 -25 3 -15 -2 -14 -42 6 -25 12 -45 28 -46 35 0 6 -4 12
-10 12 -5 0 -9 10 -9 23 1 15 3 17 6 5 3 -13 10 -15 35 -7z m81 2 c-3 -7 -9
-10 -14 -7 -14 8 -11 21 5 21 8 0 12 -6 9 -14z m-2443 -7 c0 -3 -4 -8 -10 -11
-5 -3 -10 -1 -10 4 0 6 5 11 10 11 6 0 10 -2 10 -4z m2260 -6 c0 -5 -5 -10
-11 -10 -5 0 -7 5 -4 10 3 6 8 10 11 10 2 0 4 -4 4 -10z m-41 -65 c0 -5 -4 -3
-9 5 -5 8 -9 22 -9 30 0 16 17 -16 18 -35z m18 -7 c-3 -8 -6 -5 -6 6 -1 11 2
17 5 13 3 -3 4 -12 1 -19z m210 0 c-3 -8 -6 -5 -6 6 -1 11 2 17 5 13 3 -3 4
-12 1 -19z m-462 -18 c-3 -5 -14 -10 -23 -9 -14 0 -13 2 3 9 27 11 27 11 20 0z
m93 -15 c-11 -24 -48 -36 -48 -15 0 6 5 10 11 10 6 0 17 7 25 15 22 21 25 19
12 -10z m125 5 c-3 -12 -8 -19 -11 -16 -5 6 5 36 12 36 2 0 2 -9 -1 -20z m67
12 c0 -5 -7 -9 -15 -9 -8 0 -12 4 -9 9 3 4 9 8 15 8 5 0 9 -4 9 -8z m-240 -12
c-8 -5 -19 -10 -25 -10 -5 0 -3 5 5 10 8 5 20 10 25 10 6 0 3 -5 -5 -10z
m-2680 -360 c0 -5 -2 -10 -4 -10 -3 0 -8 5 -11 10 -3 6 -1 10 4 10 6 0 11 -4
11 -10z m-217 -97 c-7 -2 -21 -2 -30 0 -10 3 -4 5 12 5 17 0 24 -2 18 -5z
m-233 -123 c0 -5 -5 -10 -11 -10 -5 0 -7 5 -4 10 3 6 8 10 11 10 2 0 4 -4 4
-10z m-300 -194 c0 -2 -11 -6 -25 -8 -14 -3 -25 -1 -25 3 0 5 11 9 25 9 14 0
25 -2 25 -4z m1380 -31 c0 -12 -19 -12 -23 0 -4 9 -1 12 9 8 7 -3 14 -7 14 -8z
m-232 -70 c-3 -3 -9 2 -12 12 -6 14 -5 15 5 6 7 -7 10 -15 7 -18z m-21 -27
c-3 -8 -6 -5 -6 6 -1 11 2 17 5 13 3 -3 4 -12 1 -19z m128 2 c-10 -11 -21 -18
-23 -15 -3 3 3 12 14 20 27 20 30 18 9 -5z m62 4 c-3 -3 -12 -4 -19 -1 -8 3
-5 6 6 6 11 1 17 -2 13 -5z m-131 -41 c-3 -4 -6 -1 -6 6 0 7 -4 9 -10 6 -6 -4
-7 1 -3 11 6 15 7 15 15 -1 6 -9 7 -19 4 -22z m-64 -1 c-10 -3 -10 -7 0 -20
12 -15 11 -15 -4 -4 -18 14 -13 47 5 35 8 -5 7 -8 -1 -11z m143 9 c3 -5 2 -12
-3 -15 -5 -3 -9 1 -9 9 0 17 3 19 12 6z m-70 -37 c11 -8 14 -14 8 -14 -7 0
-15 5 -18 11 -4 6 -13 8 -21 5 -7 -3 -16 -2 -18 3 -8 13 28 9 49 -5z m-125 -4
c0 -5 -2 -10 -4 -10 -3 0 -8 5 -11 10 -3 6 -1 10 4 10 6 0 11 -4 11 -10z
m-1297 -17 c-7 -2 -19 -2 -25 0 -7 3 -2 5 12 5 14 0 19 -2 13 -5z m1272 -3 c3
-5 1 -10 -4 -10 -6 0 -11 5 -11 10 0 6 2 10 4 10 3 0 8 -4 11 -10z m81 -2 c4
-7 4 -10 -1 -6 -4 4 -15 2 -24 -5 -14 -11 -14 -10 -2 6 16 20 18 21 27 5z m48
4 c3 -5 -1 -9 -9 -9 -8 0 -12 4 -9 9 3 4 7 8 9 8 2 0 6 -4 9 -8z m-68 -31 c8
6 14 10 15 8 7 -38 7 -49 -1 -54 -6 -4 -7 1 -3 12 6 15 4 16 -9 5 -17 -14 -30
-62 -17 -62 5 0 9 8 9 18 1 11 6 7 16 -13 14 -29 14 -29 9 -4 -4 22 -1 28 19
31 19 4 23 1 19 -11 -3 -9 5 -5 18 9 16 18 20 20 16 7 -4 -10 -7 -23 -7 -28 0
-6 -4 -8 -9 -4 -5 3 -12 1 -16 -5 -3 -5 3 -10 14 -10 15 0 21 -6 21 -22 0 -21
0 -21 -16 -2 -15 18 -15 18 -8 -5 4 -16 3 -21 -5 -17 -6 4 -11 16 -11 26 0 10
-5 22 -11 26 -8 4 -9 -1 -4 -17 5 -19 4 -21 -4 -9 -6 8 -11 11 -11 5 0 -5 -6
-3 -13 5 -7 8 -18 15 -26 15 -17 0 -41 66 -34 94 5 18 7 19 20 5 12 -11 18
-12 29 -3z m99 9 c-3 -5 -12 -10 -18 -10 -7 0 -6 4 3 10 19 12 23 12 15 0z
m-44 -13 c-5 -5 -7 -17 -4 -26 4 -14 3 -14 -6 -1 -15 21 -14 37 4 37 10 0 12
-4 6 -10z m129 -1 c0 -2 -7 -7 -16 -10 -8 -3 -12 -2 -9 4 6 10 25 14 25 6z
m-65 -36 c-4 -6 0 -22 9 -35 9 -13 16 -30 15 -37 0 -7 -4 -4 -9 7 -8 21 -8 21
-23 -25 -3 -8 -6 -3 -6 13 -1 15 4 27 9 27 7 0 7 7 0 20 -10 18 -7 40 6 40 3
0 2 -5 -1 -10z m129 -56 c3 -8 2 -12 -4 -9 -6 3 -10 10 -10 16 0 14 7 11 14
-7z m-64 -18 c-7 -7 -13 -7 -20 0 -6 6 -3 10 10 10 13 0 16 -4 10 -10z m23
-11 c-3 -9 -8 -14 -10 -11 -3 3 -2 9 2 15 9 16 15 13 8 -4z m-193 -16 c0 -6
-4 -7 -10 -4 -5 3 -10 11 -10 16 0 6 5 7 10 4 6 -3 10 -11 10 -16z m127 -21
c-3 -8 -6 -5 -6 6 -1 11 2 17 5 13 3 -3 4 -12 1 -19z m47 14 c2 -4 -4 -8 -14
-8 -10 0 -16 4 -14 8 3 4 9 8 14 8 5 0 11 -4 14 -8z m-84 -23 c0 -5 -4 -7 -10
-4 -5 3 -10 -2 -11 -12 0 -16 -1 -16 -9 2 -8 18 -9 18 -10 -5 -1 -23 -2 -23
-9 -5 -5 11 -7 23 -4 28 7 11 53 8 53 -4z m17 -11 c-3 -8 -6 -5 -6 6 -1 11 2
17 5 13 3 -3 4 -12 1 -19z m-90 6 c-3 -3 -12 -4 -19 -1 -8 3 -5 6 6 6 11 1 17
-2 13 -5z m-383 -54 l7 -25 -15 25 c-17 28 -21 50 -7 35 5 -6 12 -21 15 -35z
m42 31 c-4 -5 0 -11 6 -14 7 -2 1 -4 -14 -4 -31 -1 -38 13 -10 20 9 3 18 5 20
6 2 0 1 -3 -2 -8z m49 -1 c3 -6 -1 -7 -9 -4 -18 7 -21 14 -7 14 6 0 13 -4 16
-10z m372 -22 c-3 -8 -6 -5 -6 6 -1 11 2 17 5 13 3 -3 4 -12 1 -19z m-367 -3
c0 -2 -10 -9 -22 -15 -22 -11 -22 -10 -4 4 21 17 26 19 26 11z m-50 -24 c0 -5
-5 -11 -11 -13 -9 -3 -9 -10 0 -26 7 -13 16 -20 22 -17 10 7 13 -8 3 -18 -4
-4 -15 3 -25 15 -23 26 -25 68 -4 68 8 0 15 -4 15 -9z m425 -1 c-3 -5 -12 -10
-18 -10 -7 0 -6 4 3 10 19 12 23 12 15 0z m-25 -53 c11 -5 9 -6 -4 -4 -11 1
-21 9 -23 17 -3 10 -2 11 4 4 4 -6 15 -14 23 -17z m-351 -18 c6 9 11 8 21 -4
11 -13 11 -16 0 -13 -7 2 -15 -3 -18 -11 -3 -9 0 -12 10 -9 8 3 25 -1 39 -8
22 -13 22 -14 2 -9 -17 5 -22 2 -20 -14 1 -16 6 -19 24 -15 19 5 23 2 23 -15
0 -12 6 -21 15 -21 8 0 15 -8 15 -19 0 -10 9 -21 19 -24 14 -3 19 -13 19 -36
-1 -17 -5 -28 -11 -24 -6 4 -7 1 -3 -6 5 -7 15 -10 23 -7 8 3 11 2 8 -3 -3 -5
-1 -12 5 -16 6 -4 8 -11 5 -16 -11 -17 5 -30 24 -20 14 8 17 6 16 -11 -1 -12
-10 -25 -21 -29 -28 -11 -41 -10 -24 2 11 8 12 12 3 16 -7 2 -14 19 -14 36
l-2 32 -7 -35 c-7 -31 -10 -31 -14 0 0 6 -8 15 -16 20 -8 5 -10 10 -3 10 8 0
8 9 1 35 -6 19 -15 32 -20 29 -4 -3 -3 -14 2 -24 8 -16 8 -18 -5 -14 -8 4 -15
15 -15 25 0 11 -7 19 -16 19 -8 0 -12 5 -9 10 4 6 -4 19 -17 30 -19 16 -20 19
-5 20 9 0 17 5 17 11 0 6 -7 9 -15 5 -11 -4 -15 2 -16 22 -1 24 -2 23 -9 -8
-5 -23 -8 -27 -9 -12 -1 13 -8 22 -18 23 -15 0 -15 2 2 9 19 8 19 9 -2 9 -22
1 -34 21 -13 21 6 0 11 17 11 38 1 26 3 30 6 13 3 -16 7 -20 12 -12z m-258
-249 c6 0 7 6 3 13 -4 6 -3 9 1 4 5 -4 9 -16 10 -27 1 -15 -1 -17 -12 -9 -15
13 -17 5 -4 -20 7 -13 6 -18 -4 -18 -7 0 -11 7 -7 15 3 10 1 13 -6 8 -7 -4
-12 -3 -12 3 0 5 5 13 10 16 7 4 5 14 -5 28 -8 12 -15 26 -15 32 1 5 8 -2 16
-17 8 -16 19 -28 25 -28z m462 -4 c3 -8 0 -19 -6 -24 -9 -8 -12 -4 -13 14 -2
26 11 33 19 10z m-429 -74 c3 -5 -1 -9 -9 -9 -8 0 -12 4 -9 9 3 4 7 8 9 8 2 0
6 -4 9 -8z m459 -14 c-4 -19 -3 -20 6 -8 9 12 11 11 11 -8 0 -13 4 -20 10 -17
12 7 12 -2 0 -30 -8 -19 -9 -19 -9 3 -1 12 -8 25 -16 28 -8 4 -15 13 -15 21 0
8 -4 12 -9 9 -5 -3 -7 -16 -5 -29 4 -21 4 -21 -6 2 -6 13 -9 25 -8 26 4 3 43
24 45 25 0 0 -1 -10 -4 -22z m-426 -30 c-3 -7 -5 -2 -5 12 0 14 2 19 5 13 2
-7 2 -19 0 -25z m433 -28 c0 -5 -2 -10 -4 -10 -3 0 -8 5 -11 10 -3 6 -1 10 4
10 6 0 11 -4 11 -10z m-356 -40 c-6 -6 -10 -3 -10 10 0 13 4 16 10 10 7 -7 7
-13 0 -20z"/>
<path d="M2924 864 c3 -9 6 -21 6 -27 0 -16 20 14 20 31 0 6 -7 12 -16 12 -11
0 -14 -5 -10 -16z"/>
<path d="M2990 816 c0 -2 7 -7 16 -10 8 -3 12 -2 9 4 -6 10 -25 14 -25 6z"/>
<path d="M2778 425 c2 -14 11 -25 18 -25 12 0 11 5 -2 25 -9 14 -17 25 -19 25
-1 0 0 -11 3 -25z"/>
<path d="M3111 6434 c0 -11 3 -14 6 -6 3 7 2 16 -1 19 -3 4 -6 -2 -5 -13z"/>
<path d="M6620 6231 c0 -6 4 -13 10 -16 6 -3 7 1 4 9 -7 18 -14 21 -14 7z"/>
<path d="M6570 6195 c0 -5 5 -17 10 -25 5 -8 10 -10 10 -5 0 6 -5 17 -10 25
-5 8 -10 11 -10 5z"/>
<path d="M6603 6132 c10 -10 17 -27 17 -37 0 -10 3 -16 6 -12 12 11 -8 67 -23
67 -14 0 -14 -2 0 -18z"/>
<path d="M6580 6111 c0 -5 5 -13 10 -16 6 -3 10 -2 10 4 0 5 -4 13 -10 16 -5
3 -10 2 -10 -4z"/>
<path d="M6630 6011 c0 -6 4 -13 10 -16 6 -3 7 1 4 9 -7 18 -14 21 -14 7z"/>
<path d="M6891 5732 c13 -24 30 -49 38 -55 8 -7 5 6 -8 28 -34 56 -59 79 -30
27z"/>
<path d="M7035 5670 c10 -11 20 -20 23 -20 3 0 -3 9 -13 20 -10 11 -20 20 -23
20 -3 0 3 -9 13 -20z"/>
<path d="M601 5644 c0 -11 3 -14 6 -6 3 7 2 16 -1 19 -3 4 -6 -2 -5 -13z"/>
<path d="M597 5547 c-10 -80 -9 -257 2 -257 6 0 11 4 11 9 0 5 8 17 17 26 13
14 14 21 5 36 -11 17 -14 68 -12 176 1 56 -16 64 -23 10z"/>
<path d="M6893 5523 c4 -3 2 -12 -4 -20 -8 -9 -8 -13 -1 -13 6 0 16 9 22 20 9
16 8 20 -6 20 -10 0 -14 -3 -11 -7z"/>
<path d="M9681 5132 c-6 -11 -11 -36 -11 -55 0 -29 4 -35 24 -39 23 -5 23 -3
19 46 -6 60 -17 76 -32 48z"/>
<path d="M1686 5112 c-8 -13 3 -42 15 -42 5 0 9 -7 9 -15 0 -8 5 -15 11 -15 5
0 8 -4 5 -8 -3 -5 25 -23 62 -41 81 -40 213 -132 242 -168 11 -14 20 -39 20
-56 0 -50 9 -25 16 44 l6 66 -168 118 c-166 116 -205 137 -218 117z"/>
<path d="M8644 5088 c-74 -48 -265 -199 -271 -214 -2 -7 -3 -23 -1 -35 3 -23
3 -23 38 7 19 16 55 43 80 59 128 84 232 178 223 201 -7 20 -12 18 -69 -18z"/>
<path d="M3728 4933 c7 -3 16 -2 19 1 4 3 -2 6 -13 5 -11 0 -14 -3 -6 -6z"/>
<path d="M3546 4882 c-2 -4 0 -14 6 -22 8 -12 9 -11 4 3 -4 11 -2 17 5 15 12
-4 39 -73 33 -83 -2 -3 -1 -3 2 -1 9 7 44 -32 54 -60 6 -14 14 -22 20 -19 6 3
7 -1 4 -10 -4 -10 -2 -15 7 -13 7 2 13 -3 14 -11 0 -8 7 -17 16 -20 27 -10 72
-54 111 -106 47 -64 89 -104 115 -109 22 -5 22 5 -2 69 -11 29 -77 137 -97
159 -10 11 -18 23 -18 27 0 4 -24 47 -54 96 l-54 88 -80 3 c-44 1 -83 -1 -86
-6z"/>
<path d="M968 4788 c12 -12 25 -18 29 -14 4 4 -1 14 -11 22 -31 22 -43 17 -18
-8z"/>
<path d="M1054 4745 c11 -8 22 -12 25 -9 6 6 -19 24 -34 24 -5 -1 -1 -7 9 -15z"/>
<path d="M1690 4709 c0 -5 5 -7 10 -4 6 3 10 8 10 11 0 2 -4 4 -10 4 -5 0 -10
-5 -10 -11z"/>
<path d="M6953 4657 c21 -18 22 -28 2 -20 -13 4 -16 -2 -13 -36 1 -23 8 -47
15 -53 7 -6 13 -16 13 -24 0 -18 17 -27 32 -17 16 10 19 43 4 43 -6 0 -4 5 4
10 12 7 10 11 -10 19 l-25 10 23 0 c13 1 20 5 17 11 -3 6 -2 10 4 10 19 0 1
25 -27 38 -45 22 -59 26 -39 9z"/>
<path d="M3720 4636 c0 -2 8 -10 18 -17 15 -13 16 -12 3 4 -13 16 -21 21 -21
13z"/>
<path d="M6908 4583 c7 -3 16 -2 19 1 4 3 -2 6 -13 5 -11 0 -14 -3 -6 -6z"/>
<path d="M8367 4523 c-6 -10 -6 -63 -1 -63 11 0 24 54 16 62 -6 6 -12 6 -15 1z"/>
<path d="M1680 4500 c0 -13 7 -20 20 -20 11 0 20 -4 20 -10 0 -5 7 -10 15 -10
20 0 18 10 -4 38 -24 28 -51 29 -51 2z"/>
<path d="M8670 4495 c-13 -14 -20 -28 -17 -32 12 -11 57 19 57 39 0 25 -12 23
-40 -7z"/>
<path d="M1105 4471 c-6 -14 21 -40 43 -41 7 0 12 12 12 28 0 22 -4 27 -25 27
-14 0 -27 -6 -30 -14z"/>
<path d="M6978 4483 c7 -3 16 -2 19 1 4 3 -2 6 -13 5 -11 0 -14 -3 -6 -6z"/>
<path d="M1810 4459 c0 -13 5 -19 13 -16 7 3 21 -1 32 -9 21 -15 35 -18 35 -6
0 4 -18 17 -40 30 l-40 23 0 -22z"/>
<path d="M1680 4417 c0 -20 5 -37 10 -37 16 0 16 47 -1 65 -5 5 -9 -5 -9 -28z"/>
<path d="M8700 4414 c0 -8 5 -12 10 -9 6 3 10 10 10 16 0 5 -4 9 -10 9 -5 0
-10 -7 -10 -16z"/>
<path d="M6991 4384 c0 -11 3 -14 6 -6 3 7 2 16 -1 19 -3 4 -6 -2 -5 -13z"/>
<path d="M6970 4340 c-9 -6 -10 -10 -3 -10 6 0 14 -10 16 -22 3 -17 5 -14 6
10 1 36 2 35 -19 22z"/>
<path d="M6958 4268 c9 -9 15 -9 24 0 9 9 7 12 -12 12 -19 0 -21 -3 -12 -12z"/>
<path d="M6955 4225 c1 -16 -3 -25 -11 -25 -18 0 -18 -5 3 -38 17 -26 17 -26
0 -13 -20 16 -22 15 -31 -16 -5 -16 -3 -23 6 -24 7 0 4 -4 -7 -8 -19 -8 -19
-8 4 -16 25 -8 49 14 29 26 -7 4 -6 8 2 11 14 4 32 91 24 113 -10 24 -22 17
-19 -10z"/>
<path d="M6909 4060 c18 -11 35 -19 37 -17 7 7 -19 24 -46 32 -20 5 -19 3 9
-15z"/>
<path d="M8585 3370 c-7 -12 12 -12 40 0 18 8 17 9 -7 9 -15 1 -30 -3 -33 -9z"/>
<path d="M2445 3280 c-3 -5 -1 -10 4 -10 6 0 11 5 11 10 0 6 -2 10 -4 10 -3 0
-8 -4 -11 -10z"/>
<path d="M6128 2253 c7 -3 16 -2 19 1 4 3 -2 6 -13 5 -11 0 -14 -3 -6 -6z"/>
<path d="M5985 2170 c3 -5 13 -7 23 -4 13 5 14 4 3 -4 -7 -5 -10 -15 -7 -21 5
-8 11 -7 20 2 8 6 12 15 10 19 -3 4 26 9 63 11 60 3 57 3 -25 5 -57 1 -91 -2
-87 -8z"/>
<path d="M5936 2162 c-3 -5 1 -9 9 -9 8 0 12 4 9 9 -3 4 -7 8 -9 8 -2 0 -6 -4
-9 -8z"/>
<path d="M5905 2140 c-3 -5 -2 -10 3 -10 5 0 14 -12 20 -26 7 -14 17 -22 22
-19 6 3 10 1 10 -4 0 -6 10 -10 23 -10 16 1 17 3 5 6 -11 3 -15 11 -12 21 5
15 4 15 -6 2 -9 -12 -11 -9 -6 15 l5 30 -15 -30 -15 -30 6 30 c4 16 3 27 -1
23 -4 -4 -13 -3 -20 3 -8 7 -14 7 -19 -1z"/>
<path d="M1824 2128 c-3 -5 -4 -11 -2 -13 7 -8 128 8 128 17 0 12 -119 8 -126
-4z"/>
<path d="M1728 2103 c6 -2 18 -2 25 0 6 3 1 5 -13 5 -14 0 -19 -2 -12 -5z"/>
<path d="M5879 2084 c6 -3 8 -11 5 -19 -3 -8 -1 -22 4 -31 8 -14 9 -11 7 16
-1 19 -8 35 -14 36 -6 2 -7 0 -2 -2z"/>
<path d="M5910 2069 c0 -5 9 -9 20 -9 11 0 20 2 20 4 0 2 -9 6 -20 9 -11 3
-20 1 -20 -4z"/>
<path d="M5880 1998 c0 -4 4 -8 9 -8 6 0 12 4 15 8 3 5 -1 9 -9 9 -8 0 -15 -4
-15 -9z"/>
<path d="M5957 1982 c4 -10 2 -13 -5 -8 -6 3 -14 1 -18 -5 -4 -7 -3 -9 3 -6
12 8 26 -20 17 -34 -3 -5 -3 -9 0 -9 3 0 10 10 17 21 9 17 8 20 -2 14 -9 -6
-11 -3 -6 9 4 10 7 20 7 22 0 3 6 2 13 -2 6 -4 8 -3 4 1 -14 16 -36 14 -30 -3z"/>
<path d="M5561 1968 c-1 -9 -4 -25 -7 -35 -5 -15 -4 -15 5 -3 9 12 11 13 11 1
0 -8 2 -12 5 -10 2 3 0 18 -4 35 -5 16 -10 21 -10 12z"/>
<path d="M5771 1954 c0 -11 3 -14 6 -6 3 7 2 16 -1 19 -3 4 -6 -2 -5 -13z"/>
<path d="M5860 1951 c0 -6 4 -13 10 -16 6 -3 7 1 4 9 -7 18 -14 21 -14 7z"/>
<path d="M5890 1941 c0 -6 4 -13 10 -16 6 -3 7 1 4 9 -7 18 -14 21 -14 7z"/>
<path d="M8625 1930 c-3 -5 -1 -10 4 -10 6 0 11 5 11 10 0 6 -2 10 -4 10 -3 0
-8 -4 -11 -10z"/>
<path d="M8540 1911 c0 -6 5 -13 10 -16 6 -3 10 1 10 9 0 9 -4 16 -10 16 -5 0
-10 -4 -10 -9z"/>
<path d="M5745 1900 c27 -12 43 -12 25 0 -8 5 -22 9 -30 9 -10 0 -8 -3 5 -9z"/>
<path d="M5368 1883 c6 -2 18 -2 25 0 6 3 1 5 -13 5 -14 0 -19 -2 -12 -5z"/>
<path d="M5515 1880 c3 -5 8 -10 11 -10 2 0 4 5 4 10 0 6 -5 10 -11 10 -5 0
-7 -4 -4 -10z"/>
<path d="M5613 1883 c9 -2 25 -2 35 0 9 3 1 5 -18 5 -19 0 -27 -2 -17 -5z"/>
<path d="M8545 1866 c-26 -21 -27 -23 -8 -28 21 -6 53 12 53 30 0 21 -17 20
-45 -2z"/>
<path d="M3025 1860 c27 -12 35 -12 35 0 0 6 -12 10 -27 9 -25 0 -26 -1 -8 -9z"/>
<path d="M8190 1858 c-30 -3 -68 -11 -83 -17 -30 -12 -37 -41 -9 -41 10 0 22
-4 28 -9 7 -8 133 -16 182 -12 9 1 12 13 10 38 -3 35 -6 38 -38 43 -19 3 -60
2 -90 -2z"/>
<path d="M5738 1853 c6 -2 18 -2 25 0 6 3 1 5 -13 5 -14 0 -19 -2 -12 -5z"/>
<path d="M8478 1723 c-27 -7 -22 -38 7 -51 31 -14 95 -16 95 -3 0 5 3 16 6 24
3 9 -2 17 -13 20 -35 10 -78 15 -95 10z"/>
<path d="M1870 1700 c-13 -9 -13 -11 0 -20 22 -14 66 -12 79 3 6 8 8 17 4 20
-10 10 -66 8 -83 -3z"/>
<path d="M2701 1634 c-21 -24 -5 -28 18 -5 12 12 16 21 9 21 -7 -1 -19 -8 -27
-16z"/>
<path d="M1980 1290 c-11 -7 -5 -8 20 -4 43 8 51 14 19 14 -13 0 -31 -5 -39
-10z"/>
<path d="M1618 973 c7 -3 16 -2 19 1 4 3 -2 6 -13 5 -11 0 -14 -3 -6 -6z"/>
<path d="M7740 880 c-8 -5 -12 -12 -9 -15 4 -3 12 1 19 10 14 17 11 19 -10 5z"/>
<path d="M7915 880 c-3 -6 1 -7 9 -4 18 7 21 14 7 14 -6 0 -13 -4 -16 -10z"/>
<path d="M7760 860 c0 -5 5 -10 10 -10 6 0 10 5 10 10 0 6 -4 10 -10 10 -5 0
-10 -4 -10 -10z"/>
<path d="M7855 860 c-3 -5 -1 -10 4 -10 6 0 11 5 11 10 0 6 -2 10 -4 10 -3 0
-8 -4 -11 -10z"/>
<path d="M7818 853 c24 -10 11 -23 -23 -23 -19 0 -35 -4 -35 -9 0 -5 18 -8 40
-8 34 2 40 5 40 25 0 15 -6 22 -17 21 -11 0 -13 -3 -5 -6z"/>
<path d="M7730 816 c0 -9 5 -16 10 -16 6 0 10 4 10 9 0 6 -4 13 -10 16 -5 3
-10 -1 -10 -9z"/>
<path d="M7850 820 c0 -5 7 -10 15 -10 8 0 15 5 15 10 0 6 -7 10 -15 10 -8 0
-15 -4 -15 -10z"/>
<path d="M7900 810 c-13 -8 -12 -10 3 -10 9 0 17 5 17 10 0 12 -1 12 -20 0z"/>
<path d="M8000 809 c0 -7 -9 -9 -21 -6 -11 3 -34 1 -51 -5 -23 -8 -28 -15 -25
-30 10 -35 -3 -48 -45 -48 -22 0 -37 -4 -33 -9 3 -5 1 -12 -5 -16 -6 -4 -8
-10 -5 -15 8 -13 -7 -18 -35 -9 -24 7 -24 7 -2 8 33 2 27 21 -8 21 -33 0 -65
-36 -54 -64 4 -11 1 -16 -10 -16 -9 0 -16 4 -16 8 0 5 -6 9 -13 9 -10 0 -10
-14 2 -71 14 -62 16 -67 22 -41 4 20 6 8 6 -35 0 -46 19 -456 23 -487 0 -2 87
-3 193 -2 116 0 184 4 172 9 -17 7 -17 9 -2 9 9 1 16 7 15 13 -2 8 10 14 32
15 19 0 25 -1 13 -4 -27 -5 -31 -23 -5 -24 14 0 14 -2 -3 -9 -13 -6 13 -9 76
-9 95 -1 97 0 103 24 3 13 0 68 -9 122 -8 54 -16 114 -19 133 -10 68 -82 281
-98 291 -6 4 -8 11 -4 17 3 6 -1 15 -10 20 -9 5 -15 12 -15 15 3 22 -1 27 -21
28 -22 0 -22 1 -3 9 17 7 17 9 3 9 -10 1 -18 5 -18 10 0 5 8 12 18 14 9 3 1 6
-18 7 -19 1 -27 4 -17 7 21 5 22 21 3 42 -8 9 -16 23 -18 31 -2 8 -21 20 -43
27 -49 16 -55 16 -55 2z m-73 -94 c-15 -16 -19 -13 -11 9 3 9 10 13 15 10 5
-3 3 -11 -4 -19z m-94 -72 c-7 -2 -21 -2 -30 0 -10 3 -4 5 12 5 17 0 24 -2 18
-5z m-8 -23 c3 -5 1 -10 -4 -10 -6 0 -11 5 -11 10 0 6 2 10 4 10 3 0 8 -4 11
-10z m-120 -30 c3 -5 2 -10 -4 -10 -5 0 -13 5 -16 10 -3 6 -2 10 4 10 5 0 13
-4 16 -10z m368 -47 c-7 -2 -19 -2 -25 0 -7 3 -2 5 12 5 14 0 19 -2 13 -5z
m-326 -25 c-3 -8 -6 -5 -6 6 -1 11 2 17 5 13 3 -3 4 -12 1 -19z m2 -29 c1 8 3
12 6 9 3 -3 2 -13 -1 -23 -6 -15 -8 -15 -20 6 -7 13 -13 31 -13 39 0 8 6 2 14
-15 7 -16 14 -24 14 -16z m311 31 c0 -5 -4 -10 -10 -10 -5 0 -10 5 -10 10 0 6
5 10 10 10 6 0 10 -4 10 -10z m5 -27 c-29 -7 -43 -23 -21 -23 15 0 16 -3 6
-15 -7 -8 -10 -24 -7 -35 3 -11 2 -20 -2 -20 -4 0 -7 -23 -6 -51 1 -27 -2 -52
-7 -55 -4 -3 -8 -17 -8 -31 0 -28 -53 -147 -70 -158 -12 -8 -13 12 -1 51 19
63 34 140 33 168 0 17 4 33 9 37 6 3 12 26 14 51 4 59 23 88 55 87 21 -1 21
-2 5 -6z m-327 -69 c-3 -14 -5 -12 -10 9 -3 19 -2 25 4 19 6 -6 8 -18 6 -28z
m410 -343 c11 -6 10 -10 -4 -15 -9 -3 -19 -4 -22 -1 -3 3 1 5 9 5 11 0 11 2
-1 10 -8 5 -10 10 -5 10 6 0 16 -4 23 -9z"/>
<path d="M7850 796 c0 -2 7 -9 15 -16 12 -10 15 -10 15 4 0 9 -7 16 -15 16 -8
0 -15 -2 -15 -4z"/>
<path d="M7760 776 c0 -9 5 -16 10 -16 6 0 10 4 10 9 0 6 -4 13 -10 16 -5 3
-10 -1 -10 -9z"/>
<path d="M7823 747 c5 -16 47 -19 47 -3 0 8 -11 14 -25 14 -14 0 -24 -5 -22
-11z"/>
<path d="M7715 740 c-3 -5 1 -10 10 -10 9 0 13 5 10 10 -3 6 -8 10 -10 10 -2
0 -7 -4 -10 -10z"/>
<path d="M7765 720 c3 -5 11 -10 16 -10 6 0 7 5 4 10 -3 6 -11 10 -16 10 -6 0
-7 -4 -4 -10z"/>
<path d="M7657 693 c-4 -3 -7 -11 -7 -17 0 -6 5 -5 12 2 6 6 9 14 7 17 -3 3
-9 2 -12 -2z"/>
<path d="M1339 582 c9 -7 10 -11 2 -15 -7 -4 -8 -5 0 -3 15 2 13 20 -3 24 -10
3 -10 2 1 -6z"/>
</g>
</svg>
